<?xml version="1.0" encoding="UTF-8"?>
<svg version="1.1" xmlns="http://www.w3.org/2000/svg" width="2000" height="1993">
<path d="M0 0 C1.61452709 0.81237656 3.23127216 1.62034102 4.84820557 2.42791748 C24.70213301 12.38064768 43.72270044 23.89665268 61.74420166 36.87762451 C62.90459961 37.71342041 62.90459961 37.71342041 64.08843994 38.56610107 C72.61732392 44.73492847 81.12735868 50.92174022 89.16217041 57.72918701 C91.11410918 59.35334181 93.0737408 60.88621943 95.10748291 62.40106201 C95.67152832 62.83450928 96.23557373 63.26795654 96.81671143 63.71453857 C98.40156474 64.93149187 100.00213784 66.12789347 101.60357666 67.32293701 C103.74420166 69.87762451 103.74420166 69.87762451 103.52618408 73.0836792 C102.73636132 76.91566349 101.66858872 80.4445797 100.37310791 84.13543701 C99.88062648 85.5601091 99.38879418 86.9850057 98.89752197 88.41009521 C98.63829956 89.15651276 98.37907715 89.9029303 98.11199951 90.67196655 C73.61410908 161.57269377 63.9915095 235.9995097 58.40623474 310.54315186 C58.29666191 311.94814941 58.29666191 311.94814941 58.18487549 313.38153076 C58.1234285 314.20467773 58.06198151 315.02782471 57.99867249 315.87591553 C57.74420166 317.87762451 57.74420166 317.87762451 56.74420166 319.87762451 C54.54547119 320.30072021 54.54547119 320.30072021 51.62701416 320.55340576 C50.55330566 320.65677246 49.47959717 320.76013916 48.37335205 320.86663818 C46.63879761 321.02676392 46.63879761 321.02676392 44.86920166 321.19012451 C34.66726874 322.22781165 25.1066746 323.99784857 15.27935791 326.88934326 C11.74420166 327.87762451 11.74420166 327.87762451 8.74420166 327.87762451 C8.67791565 327.05554504 8.61162964 326.23346558 8.54333496 325.38647461 C1.81277122 197.87765001 1.81277122 197.87765001 -61.25579834 90.87762451 C-61.80880615 90.27821045 -62.36181396 89.67879639 -62.93157959 89.06121826 C-117.23892153 31.12474607 -218.19053564 14.59449545 -293.25579834 11.87762451 C-300.46325777 11.69682252 -307.67143978 11.68178079 -314.88079834 11.69012451 C-315.85691071 11.69072876 -316.83302307 11.69133301 -317.8387146 11.69195557 C-416.42588924 11.85619575 -511.55656759 35.93809685 -615.25579834 92.87762451 C-616.10448486 93.40323975 -616.95317139 93.92885498 -617.82757568 94.47039795 C-630.26682178 102.20713678 -642.40439341 110.26973351 -654.25579834 118.87762451 C-655.01457275 119.42386475 -655.77334717 119.97010498 -656.55511475 120.53289795 C-667.47398843 128.39843547 -678.03767958 136.5878343 -688.33050537 145.25653076 C-690.14280295 146.78248256 -691.96187643 148.29989754 -693.78314209 149.81512451 C-700.55294693 155.46868975 -707.09990757 161.32234509 -713.56072998 167.32611084 C-714.84155193 168.49846047 -716.13458549 169.65748776 -717.43328857 170.80999756 C-723.64265232 176.32538449 -729.59450219 182.06089498 -735.45233154 187.94378662 C-736.94884759 189.44569376 -738.45068134 190.94213513 -739.95306396 192.43817139 C-744.7305019 197.2123142 -749.39748454 202.03588664 -753.79119873 207.16790771 C-755.84417698 209.56447492 -757.98966014 211.87236044 -760.13079834 214.19012451 C-764.16981987 218.62393762 -768.03086712 223.15817035 -771.79486084 227.82684326 C-773.5886007 230.05051125 -775.39452217 232.25960929 -777.21673584 234.45965576 C-795.49387599 256.59792607 -812.42973625 280.13905243 -827.05169678 304.85028076 C-828.21295157 306.80548348 -829.39088441 308.74937928 -830.57611084 310.69012451 C-876.40364133 385.88614165 -908.10934455 469.86772822 -937.00579834 640.00262451 C-937.06505493 640.67257446 -937.12431152 641.34252441 -937.18536377 642.03277588 C-937.58596976 646.64474879 -937.9326385 651.2597041 -938.25579834 655.87762451 C-938.35151123 657.1899707 -938.44722412 658.50231689 -938.5458374 659.85443115 C-939.65190601 676.56093832 -939.50162426 693.32983353 -939.50579834 710.06512451 C-939.5062402 710.87696701 -939.50668205 711.68880951 -939.5071373 712.5252533 C-939.51433014 737.75648352 -939.14695157 762.78472798 -936.25579834 787.87762451 C-936.17094177 788.63772827 -936.08608521 789.39783203 -935.99865723 790.18096924 C-926.30108241 877.01558043 -898.24616799 961.59747725 -834.56829834 1031.25262451 C-833.9628418 1031.90658203 -833.35738525 1032.56053955 -832.73358154 1033.23431396 C-828.48249626 1037.75609564 -823.97676733 1041.85377286 -819.25579834 1045.87762451 C-818.26837646 1046.74645264 -817.28095459 1047.61528076 -816.26361084 1048.51043701 C-797.43195358 1064.79037919 -776.61296943 1078.31976628 -754.12200928 1088.98944092 C-752.29744234 1089.85780493 -750.4834793 1090.74833898 -748.66986084 1091.63934326 C-668.41532655 1130.37390699 -569.28986502 1132.45784751 -413.33258057 1098.25299072 C-398.28195025 1092.94870016 -383.68418049 1086.69070976 -369.25579834 1079.87762451 C-367.82083008 1079.20545898 -367.82083008 1079.20545898 -366.35687256 1078.51971436 C-322.24002521 1057.69940119 -281.72758624 1027.89647131 -245.73236084 995.10809326 C-244.37254924 993.8834049 -243.00626949 992.66531553 -241.61248779 991.47943115 C-235.72340292 986.44456378 -230.24661933 981.02076265 -224.78289795 975.53509521 C-223.19619888 973.94303485 -221.60422092 972.35639461 -220.01165771 970.77020264 C-214.5492003 965.31163404 -209.25107586 959.77144531 -204.25579834 953.87762451 C-203.30688578 952.79418257 -202.35641595 951.71210215 -201.40423584 950.63153076 C-193.60323864 941.68827947 -186.33789548 932.39747616 -179.25579834 922.87762451 C-178.71278076 922.150271 -178.16976318 921.42291748 -177.61029053 920.67352295 C-135.96259121 864.67308115 -102.22555965 795.56103906 -91.61419678 726.20916748 C-91.29257764 724.11689039 -90.93654164 722.02997226 -90.57611084 719.94403076 C-89.07267856 709.8833915 -89.01885232 699.7806656 -88.94329834 689.62762451 C-88.93367065 688.89805542 -88.92404297 688.16848633 -88.91412354 687.41680908 C-88.7740233 675.02037769 -89.5731791 662.68850274 -96.25579834 651.87762451 C-96.79204834 650.99074951 -97.32829834 650.10387451 -97.88079834 649.19012451 C-109.67352473 637.70773303 -129.1994313 637.84114363 -144.64910889 637.88431168 C-150.32607111 637.99082343 -155.99275992 638.28152861 -161.66204834 638.58465576 C-163.52170218 638.67777781 -165.38136221 638.77077627 -167.24102783 638.86366272 C-189.5932564 640.01219263 -211.91413761 641.65732036 -234.23394394 643.3057251 C-239.02205027 643.6583893 -243.81047716 644.00659664 -248.59889889 644.35494804 C-284.84735513 646.99321465 -321.08781732 649.7377471 -357.32156658 652.57077312 C-360.98192466 652.85694455 -364.64235201 653.14222516 -368.30277443 653.42757225 C-370.78946971 653.62201057 -373.2760175 653.81825721 -375.76255798 654.0146637 C-377.24491828 654.1305144 -378.72728387 654.24629737 -380.20965576 654.36199951 C-381.4825798 654.46222412 -382.75550385 654.56244873 -384.06700134 654.66571045 C-386.4590317 654.82467475 -388.85849175 654.87762451 -391.25579834 654.87762451 C-390.78246906 647.31075236 -389.61095006 640.25340862 -387.63079834 632.94012451 C-387.36355957 631.94432373 -387.0963208 630.94852295 -386.82098389 629.92254639 C-382.86463108 615.49578786 -377.90228742 601.77852615 -371.63079834 588.19012451 C-370.9478772 586.67322021 -370.9478772 586.67322021 -370.25115967 585.12567139 C-369.8066748 584.19432373 -369.36218994 583.26297607 -368.90423584 582.30340576 C-368.5141333 581.47236328 -368.12403076 580.6413208 -367.72210693 579.78509521 C-366.25579834 577.87762451 -366.25579834 577.87762451 -364.29827881 577.26925659 C-359.89972116 576.70306848 -355.54061513 576.7161099 -351.10980225 576.70404053 C-350.08340511 576.69730253 -349.05700798 576.69056454 -347.9995079 576.68362236 C-345.75926044 576.66947623 -343.51899822 576.6575364 -341.27872849 576.64752007 C-337.67392789 576.63126731 -334.06920574 576.60913175 -330.46444702 576.58540344 C-325.29712842 576.55168631 -320.12980347 576.51998855 -314.96246338 576.48974609 C-301.42206724 576.40937029 -287.8818711 576.30201198 -274.34173584 576.18621826 C-273.66775883 576.18046595 -272.99378181 576.17471363 -272.29938126 576.168787 C-146.19662491 575.27050548 -146.19662491 575.27050548 84.74420166 538.87762451 C88.08043797 543.34455179 89.71226004 547.40384839 90.86920166 552.87762451 C91.11730591 553.99802124 91.11730591 553.99802124 91.37042236 555.14105225 C99.27717326 591.81168132 99.27717326 591.81168132 93.74420166 602.87762451 C91.49681922 603.74102353 89.28731527 604.4912111 86.99029541 605.19793701 C85.57084594 605.6509095 84.15158199 606.10446368 82.73248291 606.55853271 C81.98821045 606.79415924 81.24393799 607.02978577 80.47711182 607.27255249 C68.0567988 611.22292406 56.01071063 615.20666525 44.74420166 621.87762451 C43.86763916 622.37520264 42.99107666 622.87278076 42.08795166 623.38543701 C26.2261812 633.06111699 19.01640616 651.1624568 13.49420166 668.09637451 C13.1097438 669.26385223 12.72528595 670.43132996 12.32917786 671.63418579 C8.21991185 684.25789527 4.53421263 697.00280666 0.89169312 709.76702881 C-1.03226651 716.50811323 -2.97756132 723.24306218 -4.92162514 729.97837067 C-5.38016045 731.5670231 -5.83853223 733.15572273 -6.29674339 734.74446869 C-22.41221062 790.61276826 -39.15113089 846.30472425 -56.25579834 901.87762451 C-56.5948457 902.97922157 -56.5948457 902.97922157 -56.94074249 904.10307312 C-81.96406742 985.38674188 -107.94051339 1066.35596033 -164.25579834 1230.87762451 C-164.57592896 1231.77118652 -164.89605957 1232.66474854 -165.22589111 1233.58538818 C-195.64318901 1318.44953169 -230.90996021 1401.72824898 -282.75823975 1501.15155029 C-284.30356695 1503.96457989 -285.82036486 1506.79139563 -287.33001709 1509.62371826 C-294.8884192 1523.78678828 -302.88456388 1537.64519767 -311.16448975 1551.39813232 C-312.91954624 1554.31423566 -314.66202343 1557.23764702 -316.40171814 1560.16293335 C-326.11760144 1576.48410845 -336.36415209 1592.30766759 -347.25579834 1607.87762451 C-347.75692139 1608.59611572 -348.25804443 1609.31460693 -348.77435303 1610.05487061 C-367.67374509 1637.0764851 -388.28679816 1663.04227799 -410.72821045 1687.20648193 C-411.86838865 1688.45380809 -412.99460867 1689.71392013 -414.11346436 1690.98040771 C-420.17984436 1697.82954643 -426.55245731 1704.32779521 -433.03094482 1710.78314209 C-434.82255784 1712.56937121 -436.60872889 1714.36091799 -438.39447021 1716.15301514 C-444.18136238 1721.94326965 -450.01662917 1727.57131101 -456.25579834 1732.87762451 C-458.03150055 1734.49730268 -459.80288141 1736.12174169 -461.56829834 1737.75262451 C-466.97071291 1742.67334231 -472.55748693 1747.30555004 -478.25579834 1751.87762451 C-479.3760035 1752.78987741 -480.49577539 1753.70266254 -481.61517334 1754.61590576 C-510.23929368 1777.87153834 -541.0963149 1798.181896 -573.65374756 1815.48846436 C-576.08366117 1816.78572542 -578.50110778 1818.10336779 -580.91595459 1819.42840576 C-644.50121132 1854.03454106 -716.75245713 1873.14114939 -788.25579834 1881.87762451 C-789.4945874 1882.03070068 -790.73337646 1882.18377686 -792.00970459 1882.3414917 C-878.98162435 1892.77906028 -978.88152468 1892.18651659 -1100.53314209 1830.88543701 C-1122.76115425 1813.13726812 -1135.90003469 1793.19274008 -1146.19329834 1767.12762451 C-1146.50025635 1766.35257568 -1146.80721436 1765.57752686 -1147.12347412 1764.7789917 C-1148.31615863 1761.68419881 -1149.25579834 1759.22366955 -1149.25579834 1755.87762451 C-1145.44518405 1757.32256258 -1141.899201 1759.05354145 -1138.30267334 1760.96746826 C-1137.13905273 1761.58154541 -1135.97543213 1762.19562256 -1134.77655029 1762.82830811 C-1134.1625235 1763.15240662 -1133.5484967 1763.47650513 -1132.91586304 1763.8104248 C-1110.72407888 1775.48336922 -1088.15965953 1785.22512307 -1064.25579834 1792.87762451 C-1063.27852783 1793.1918335 -1062.30125732 1793.50604248 -1061.29437256 1793.82977295 C-1017.31240404 1807.77364184 -970.14526897 1814.91307046 -924.05657959 1815.08074951 C-922.75432938 1815.08776382 -921.45207916 1815.09477814 -920.11036682 1815.102005 C-915.92967227 1815.121393 -911.74903332 1815.12643964 -907.56829834 1815.12762451 C-906.8548098 1815.12806637 -906.14132126 1815.12850822 -905.40621185 1815.12896347 C-882.90046678 1815.13626707 -860.60786612 1814.72197777 -838.25579834 1811.87762451 C-837.55589783 1811.79041138 -836.85599731 1811.70319824 -836.1348877 1811.61334229 C-772.56712086 1803.65911182 -712.56896379 1785.45551851 -655.25579834 1756.87762451 C-654.28013916 1756.39180908 -653.30447998 1755.90599365 -652.29925537 1755.40545654 C-633.22099525 1745.83915858 -614.7971207 1735.0469169 -597.25579834 1722.87762451 C-596.54423584 1722.38858643 -595.83267334 1721.89954834 -595.09954834 1721.39569092 C-579.30578304 1710.53427237 -563.95550466 1699.18835953 -549.25579834 1686.87762451 C-548.7512915 1686.45803467 -548.24678467 1686.03844482 -547.72698975 1685.60614014 C-540.71659063 1679.7730112 -533.88305907 1673.79199541 -527.20501709 1667.58074951 C-525.0347554 1665.56890911 -522.81283151 1663.6288683 -520.56976318 1661.69866943 C-516.30588849 1657.97226968 -512.28021033 1654.0467395 -508.28314209 1650.03778076 C-507.55639786 1649.31199326 -506.82965363 1648.58620575 -506.08088684 1647.83842468 C-504.55617538 1646.31438895 -503.03270683 1644.78910882 -501.51043701 1643.26263428 C-499.19945943 1640.94629988 -496.88319063 1638.63535374 -494.56634521 1636.32489014 C-493.07579014 1634.83367417 -491.58554534 1633.34214799 -490.09564209 1631.85028076 C-489.0719175 1630.82959251 -489.0719175 1630.82959251 -488.0275116 1629.7882843 C-484.10848819 1625.85038217 -480.36579117 1621.80897778 -476.73954773 1617.5994873 C-474.82893225 1615.38225458 -472.85554934 1613.22524486 -470.88079834 1611.06512451 C-467.00546091 1606.77153819 -463.33358524 1602.34674449 -459.69720459 1597.85028076 C-456.97859776 1594.54010508 -454.18481255 1591.30279997 -451.38079834 1588.06512451 C-445.901642 1581.71612275 -440.67881368 1575.19550055 -435.55413818 1568.55828857 C-434.31994824 1566.96066474 -433.07906796 1565.36821591 -431.83782959 1563.77606201 C-425.07399256 1555.05920842 -418.52639784 1546.18579616 -412.01409912 1537.27996826 C-410.35821447 1535.01755435 -408.69593286 1532.75996412 -407.03314209 1530.50262451 C-398.67282132 1519.0967768 -390.82708399 1507.37092664 -383.03753662 1495.57000732 C-381.10376835 1492.64789216 -379.15106821 1489.73908548 -377.19378662 1486.83270264 C-347.26545919 1442.30309092 -321.20051065 1395.18354696 -296.23748779 1347.74206543 C-295.29908019 1345.95982613 -294.35854513 1344.17870749 -293.41790771 1342.39764404 C-286.73405513 1329.7332062 -280.29397776 1316.98772135 -274.18157959 1304.03778076 C-272.08979319 1299.61104411 -269.95684311 1295.205927 -267.79876709 1290.81121826 C-259.14584186 1273.16512482 -251.01210546 1255.33135249 -243.1071167 1237.33854675 C-240.53817767 1231.49803809 -237.91385527 1225.68441312 -235.27703857 1219.87420654 C-204.30596455 1151.49626263 -177.97640177 1080.73654392 -153.13079834 1009.94012451 C-152.82648895 1009.07525421 -152.52217957 1008.21038391 -152.20864868 1007.31930542 C-151.36377763 1004.91427603 -150.52360185 1002.50767131 -149.68548584 1000.10028076 C-149.43645004 999.39133667 -149.18741425 998.68239258 -148.93083191 997.95196533 C-147.67789522 994.49579957 -147.67789522 994.49579957 -147.25579834 990.87762451 C-148.18198975 992.09385498 -148.18198975 992.09385498 -149.12689209 993.33465576 C-156.79183961 1003.37001691 -164.61958985 1013.19518742 -173.13079834 1022.53387451 C-175.08074558 1024.68455162 -176.98605963 1026.86587422 -178.88079834 1029.06512451 C-181.63178725 1032.22812789 -184.53275523 1035.17888028 -187.52532959 1038.11199951 C-189.26182106 1039.88376959 -190.8486346 1041.72792824 -192.44329834 1043.62762451 C-195.94861664 1047.70265595 -199.85911136 1051.2789416 -203.84344482 1054.87176514 C-206.63814802 1057.3918748 -209.37215379 1059.93961574 -212.00579834 1062.62762451 C-215.58239375 1066.25555862 -219.38369207 1069.56979504 -223.25579834 1072.87762451 C-224.18005615 1073.67942139 -225.10431396 1074.48121826 -226.05657959 1075.30731201 C-234.83688579 1082.87885713 -243.98579403 1089.9190904 -253.25579834 1096.87762451 C-253.86085205 1097.33604736 -254.46590576 1097.79447021 -255.08929443 1098.26678467 C-337.01022734 1160.28770975 -432.21876038 1194.27021901 -549.25579834 1203.87762451 C-550.10545166 1203.934021 -550.95510498 1203.99041748 -551.83050537 1204.04852295 C-634.0625036 1209.49520439 -719.44458442 1199.99687043 -896.46453857 1106.44793701 C-904.33869342 1099.54503883 -911.9110257 1092.40473529 -919.31829834 1085.00262451 C-920.71145264 1083.62783936 -920.71145264 1083.62783936 -922.13275146 1082.22528076 C-928.28347494 1076.08750617 -933.83343545 1069.66017104 -939.25579834 1062.87762451 C-940.19078954 1061.77597597 -941.13212459 1060.67962842 -942.08392334 1059.59246826 C-1002.65375626 990.13254696 -1032.46076632 896.6257662 -1047.00579834 775.44012451 C-1047.06505493 774.71141144 -1047.12431152 773.98269836 -1047.18536377 773.23190308 C-1048.85311392 752.29485336 -1049.46387398 731.37773507 -1049.44329834 710.37762451 C-1049.44269409 709.22532349 -1049.44208984 708.07302246 -1049.44146729 706.88580322 C-1049.31780267 619.31014494 -1035.80148963 532.58885532 -943.25579834 296.87762451 C-942.67185303 295.84009033 -942.08790771 294.80255615 -941.48626709 293.73358154 C-933.23508196 279.10509886 -924.62887563 264.81351692 -915.25579834 250.87762451 C-914.66299072 249.99123291 -914.07018311 249.10484131 -913.45941162 248.19158936 C-901.42533572 230.22437526 -888.80427214 212.73507322 -875.25579834 195.87762451 C-874.51072021 194.94949951 -873.76564209 194.02137451 -872.99798584 193.06512451 C-863.94606062 181.90432782 -854.55432324 171.06510332 -844.77362061 160.53900146 C-843.66478929 159.32529758 -842.57091374 158.09788212 -841.48602295 156.86273193 C-834.74096511 149.21843972 -827.56161831 142.03162555 -820.34442139 134.83587646 C-818.19067312 132.68750585 -816.04234608 130.53381757 -813.89447021 128.37957764 C-812.5035148 126.98928283 -811.11224931 125.59929815 -809.72064209 124.20965576 C-809.09020493 123.57719437 -808.45976776 122.94473297 -807.81022644 122.29310608 C-804.00432003 118.50683407 -800.08355406 114.90559969 -796.01687622 111.40058899 C-793.61076174 109.3198026 -791.27976153 107.16103685 -788.94329834 105.00262451 C-784.53226661 100.98381858 -780.01844476 97.14897128 -775.37298584 93.40496826 C-773.04341892 91.52714535 -770.74322437 89.61738334 -768.45111084 87.69403076 C-758.77429403 79.5954171 -748.83314412 71.97111397 -738.60687256 64.58026123 C-736.32778495 62.92975687 -734.05829695 61.26687001 -731.79095459 59.60028076 C-676.31605004 18.96168789 -615.44571587 -12.43521802 -550.25579834 -34.12237549 C-549.02442139 -34.53326416 -547.79304443 -34.94415283 -546.52435303 -35.36749268 C-465.64378669 -62.06358165 -379.20770615 -72.1541102 0 0 Z " fill="#000000" transform="translate(1170.2557983398438,88.12237548828125)"/>
<path d="M0 0 C1.77675236 -0.01816005 3.55345082 -0.04286022 5.33001709 -0.07434082 C7.85101088 -0.11644968 10.37087808 -0.13178544 12.8921814 -0.14068604 C14.03012398 -0.16687263 14.03012398 -0.16687263 15.1910553 -0.19358826 C21.23294986 -0.16934442 24.50439312 1.8607988 28.95858765 5.71478271 C46.56451493 25.51476173 52.1021834 57.81503103 51.3062439 83.28509521 C46.87958108 84.64375572 43.26891065 83.55409042 38.8687439 82.53509521 C25.46856089 79.66788303 11.9437811 78.44703785 -1.6937561 77.28509521 C-2.87792114 77.17923096 -4.06208618 77.0733667 -5.28213501 76.96429443 C-22.48934254 75.47345989 -39.67049851 75.06797588 -56.93640137 74.98855591 C-59.19580567 74.97808764 -61.45519494 74.96328398 -63.71453857 74.94369507 C-94.30290998 74.71378891 -128.65372241 77.89576942 -151.79458618 100.27484131 C-153.11030328 101.59585351 -154.40285659 102.93982084 -155.6937561 104.28509521 C-156.34473267 104.93993896 -156.99570923 105.59478271 -157.66641235 106.26947021 C-182.91501206 133.18597286 -189.02108519 172.49355314 -196.55467224 207.11125946 C-197.0774493 209.51252558 -197.60147167 211.9135172 -198.12576294 214.31445312 C-207.58242896 257.63922413 -216.63730888 301.04461512 -225.37734985 344.51947021 C-225.57944376 345.52469097 -225.78153767 346.52991173 -225.98975563 347.56559372 C-226.61013088 350.65160939 -227.23044252 353.73763784 -227.85073853 356.82366943 C-247.1074956 452.62696025 -267.23647074 548.30933561 -399.6937561 983.28509521 C-399.98659485 983.89268677 -400.27943359 984.50027832 -400.58114624 985.12628174 C-409.19547963 1002.98426394 -418.39113699 1020.32795481 -428.6937561 1037.28509521 C-429.36350464 1038.40029541 -429.36350464 1038.40029541 -430.04678345 1039.5380249 C-453.87319235 1079.16510498 -484.35986438 1116.49963991 -520.6937561 1145.28509521 C-521.45301392 1145.91286865 -522.21227173 1146.54064209 -522.99453735 1147.18743896 C-535.83626678 1157.74139811 -549.69459053 1166.76654157 -563.97061157 1175.2387085 C-565.57194004 1176.2111219 -567.13494575 1177.24588831 -568.6937561 1178.28509521 C-561.63255047 1178.39236177 -554.67930946 1178.08344047 -547.64297485 1177.50775146 C-546.01570465 1177.37832909 -546.01570465 1177.37832909 -544.3555603 1177.24629211 C-540.69697626 1176.95236886 -537.03909046 1176.65069977 -533.3812561 1176.34759521 C-531.43921799 1176.18828522 -531.43921799 1176.18828522 -529.45794678 1176.02575684 C-499.65802043 1173.574911 -469.90387833 1170.64942405 -440.14614868 1167.73797607 C-436.15291336 1167.34732889 -432.15966808 1166.95678381 -428.16641235 1166.56634521 C-426.68789008 1166.42174205 -426.68789008 1166.42174205 -425.17949867 1166.27421761 C-405.27305941 1164.32868206 -385.3601087 1162.45793468 -365.44270706 1160.62828827 C-363.12708944 1160.41545671 -360.81152357 1160.20207076 -358.49597168 1159.98852539 C-354.15320509 1159.58823774 -349.81025975 1159.18993132 -345.4671936 1158.79290771 C-344.41088777 1158.69622047 -344.41088777 1158.69622047 -343.33324242 1158.59757996 C-335.83266492 1157.9123724 -328.33138448 1157.24872806 -320.8241272 1156.64007568 C-296.35591852 1154.65003945 -271.95938226 1152.04685126 -247.5502882 1149.43848991 C-161.44724328 1140.23847904 -75.24258495 1131.10244779 35.23416138 1125.36651611 C37.22863734 1125.28814471 39.22277652 1125.20134114 41.21688843 1125.11419678 C211.99075557 1117.65951938 211.99075557 1117.65951938 248.6187439 1149.72259521 C250.19875488 1151.22522809 251.76307625 1152.74464921 253.3062439 1154.28509521 C253.88245483 1154.84970459 254.45866577 1155.41431396 255.05233765 1155.99603271 C269.23920013 1171.10412003 269.35600026 1193.71071883 270.9937439 1213.22259521 C271.08515152 1214.31 271.08515152 1214.31 271.17840576 1215.41937256 C273.15982484 1239.53044423 273.53454279 1263.67283845 273.83847046 1287.85015869 C273.88964316 1291.86040624 273.94481757 1295.87059881 273.99960327 1299.88079834 C274.10561881 1307.68218348 274.2073785 1315.48361583 274.3062439 1323.28509521 C272.39431236 1322.9703987 270.48256372 1322.65459085 268.57089233 1322.33831787 C266.97395538 1322.07469955 266.97395538 1322.07469955 265.34475708 1321.80575562 C261.72152436 1321.18490137 258.14632541 1320.44991315 254.5562439 1319.66009521 C253.36515015 1319.39970459 252.1740564 1319.13931396 250.9468689 1318.87103271 C250.07546265 1318.67767334 249.2040564 1318.48431396 248.3062439 1318.28509521 C248.2112561 1317.63661621 248.11626831 1316.98813721 248.0184021 1316.32000732 C244.58254173 1288.52769712 244.58254173 1288.52769712 228.37265015 1266.81634521 C165.88471246 1223.15275952 45.87400094 1232.66535869 -26.4437561 1229.59759521 C-27.16343063 1229.56684654 -27.88310516 1229.53609787 -28.62458801 1229.50441742 C-38.59787355 1229.07921636 -48.57217019 1228.69911917 -58.54872131 1228.3591423 C-60.63903327 1228.28698426 -62.72919873 1228.21143252 -64.81936646 1228.13522339 C-100.19185411 1226.86832229 -135.6014385 1227.09743497 -170.99114966 1227.09998375 C-177.12804032 1227.09968277 -183.26488636 1227.09156701 -189.40176392 1227.07928467 C-225.56464655 1227.00858561 -261.70153713 1227.10117203 -297.8500061 1228.21478271 C-298.53480702 1228.23585531 -299.21960794 1228.25692791 -299.92516041 1228.27863908 C-385.37455024 1230.93112816 -470.83883801 1236.23337349 -635.6937561 1258.28509521 C-637.07104889 1258.52265533 -637.07104889 1258.52265533 -638.47616577 1258.76501465 C-658.18328749 1262.18351448 -677.76068918 1265.95694219 -697.15859985 1270.85540771 C-698.36827423 1271.15983795 -699.57794861 1271.46426819 -700.82427979 1271.77792358 C-706.73917959 1273.27371547 -712.64266622 1274.80295529 -718.53555298 1276.38323975 C-720.6806323 1276.93946381 -722.82580971 1277.49530981 -724.97109985 1278.05072021 C-726.424188 1278.45763596 -726.424188 1278.45763596 -727.90663147 1278.87277222 C-734.30018115 1280.50006953 -737.75791593 1280.23755521 -743.6937561 1277.28509521 C-760.90154809 1266.6630014 -772.78534876 1238.29225271 -777.5687561 1219.53509521 C-779.02737534 1212.47642 -779.60840599 1205.87836263 -777.8187561 1198.84759521 C-771.89442331 1191.70354685 -760.32954142 1191.03446715 -751.64083862 1189.45046997 C-716.44333242 1182.98017937 -682.13134994 1172.48500371 -649.6937561 1157.28509521 C-648.82428345 1156.8779126 -647.95481079 1156.47072998 -647.05899048 1156.0512085 C-624.58123833 1145.40762976 -604.64815959 1132.53678232 -586.6937561 1115.28509521 C-585.92950317 1114.55371338 -585.92950317 1114.55371338 -585.14981079 1113.80755615 C-578.10763364 1107.03028849 -571.75704585 1099.96389892 -565.6937561 1092.28509521 C-564.80927599 1091.21163218 -563.92244414 1090.1401037 -563.03359985 1089.07025146 C-542.1067698 1063.71135117 -525.18774852 1035.27861898 -509.45010376 1006.496521 C-508.26708272 1004.33340469 -507.07915402 1002.17296602 -505.8866272 1000.01507568 C-461.02753796 918.77279741 -433.06501324 829.13011875 -385.1468811 634.33587646 C-384.91665729 633.26455329 -384.91665729 633.26455329 -384.68178248 632.17158723 C-374.93154152 586.76883156 -365.99828391 541.19736297 -356.97149813 495.64660543 C-354.46790348 483.01425405 -351.95780171 470.38319785 -349.44746912 457.75218403 C-343.52104825 427.93150942 -337.60499583 398.10878248 -331.6937561 368.28509521 C-331.50915455 367.35373623 -331.32455299 366.42237724 -331.13435745 365.46279526 C-328.09796231 350.14311681 -325.06301292 334.82315206 -322.02840519 319.50311947 C-321.08209005 314.72573142 -320.13572625 309.94835301 -319.1893425 305.17097855 C-318.73448497 302.87474905 -318.27966361 300.5785124 -317.82487869 298.28226852 C-310.27551576 260.16605592 -302.655786 222.0641879 -294.98885077 183.97147089 C-294.13853795 179.74646619 -293.28893669 175.52131934 -292.4400472 171.29602844 C-289.09852086 154.66389917 -285.73840105 138.03569963 -282.3343811 121.41622925 C-281.72036813 118.41516481 -281.10917904 115.41353707 -280.4984436 112.4118042 C-279.61344027 108.07046427 -278.71450544 103.73226088 -277.80282593 99.39644623 C-277.48997962 97.90063871 -277.18114418 96.4039842 -276.87716675 94.90634918 C-273.37642192 77.70325335 -268.29363581 58.9133922 -253.5062561 48.04290771 C-248.18988831 44.72017785 -242.54710245 42.47163244 -236.6937561 40.28509521 C-235.82331665 39.95396729 -234.9528772 39.62283936 -234.05606079 39.28167725 C-172.36471186 15.92964401 -105.95484417 5.50145557 -40.31240845 1.44818115 C-37.89254055 1.29747523 -35.47514974 1.12541866 -33.05703735 0.94915771 C-22.05753361 0.21010269 -11.02098444 0.0978242 0 0 Z " fill="#000000" transform="translate(1705.6937561035156,450.71490478515625)"/>
</svg>
