<?xml version="1.0" encoding="UTF-8"?>
<svg version="1.1" xmlns="http://www.w3.org/2000/svg" width="115" height="132">
<path d="M0 0 C1.67103287 -0.00855011 1.67103287 -0.00855011 3.37582397 -0.01727295 C5.72417254 -0.02669523 8.07253415 -0.03324587 10.42089844 -0.03710938 C14.0178094 -0.04685974 17.61415939 -0.07792776 21.2109375 -0.109375 C23.49478828 -0.11590126 25.77864313 -0.12115321 28.0625 -0.125 C29.13859528 -0.1373468 30.21469055 -0.1496936 31.32339478 -0.16241455 C32.82547989 -0.1579129 32.82547989 -0.1579129 34.35791016 -0.15332031 C35.23694 -0.15696594 36.11596985 -0.16061157 37.02163696 -0.16436768 C39.92297602 0.28422733 41.28991391 1.18573361 43.3984375 3.203125 C45.36018884 11.79140571 45.99037618 25.14701349 42.47851562 33.35253906 C39.86660839 36.9796986 36.19761122 39.00138438 32.3984375 41.203125 C30.37578023 42.86340022 28.37479447 44.55049545 26.3984375 46.265625 C21.90708046 49.98013395 19.12581674 51.33449713 13.29296875 51.30078125 C12.31005859 51.29755859 11.32714844 51.29433594 10.31445312 51.29101562 C9.29029297 51.28263672 8.26613281 51.27425781 7.2109375 51.265625 C6.17517578 51.26111328 5.13941406 51.25660156 4.07226562 51.25195312 C1.5142983 51.24016526 -1.04363936 51.22222982 -3.6015625 51.203125 C-3.1065625 60.608125 -3.1065625 60.608125 -2.6015625 70.203125 C-1.1578125 68.883125 0.2859375 67.563125 1.7734375 66.203125 C17.54555891 52.00372225 17.54555891 52.00372225 31.66479492 51.96289062 C33.69296689 51.95321077 35.72011392 51.92219968 37.74804688 51.890625 C39.03130859 51.88546875 40.31457031 51.8803125 41.63671875 51.875 C43.4007605 51.86098145 43.4007605 51.86098145 45.20043945 51.84667969 C48.82378023 52.25053323 50.52651987 52.98251586 53.3984375 55.203125 C54.08045959 57.65380859 54.08045959 57.65380859 54.15649414 60.6015625 C54.19484879 61.70701416 54.23320343 62.81246582 54.27272034 63.95141602 C54.29047768 65.74663696 54.29047768 65.74663696 54.30859375 67.578125 C54.34067177 69.43038696 54.34067177 69.43038696 54.37339783 71.32006836 C54.4075176 73.9393109 54.42759611 76.55876784 54.43481445 79.17822266 C54.44749861 83.16189327 54.57698479 87.13923021 54.69726562 91.12109375 C55.01834087 111.9944475 55.01834087 111.9944475 49.64295959 117.66047668 C47.05672496 119.80220974 44.2653611 121.45351889 41.3984375 123.203125 C40.59301514 124.06010986 39.78759277 124.91709473 38.95776367 125.80004883 C32.10934533 132.80968545 25.32432616 133.00304169 15.890625 133.15234375 C10.68179445 133.14669208 5.48033333 133.02288487 0.2734375 132.890625 C-2.38147166 132.86258817 -5.03642519 132.83846544 -7.69140625 132.81835938 C-24.07714967 132.61896525 -37.14309348 132.23445826 -51.3515625 123.515625 C-60.90467178 113.69715157 -61.9152788 103.1783954 -61.9375 90.125 C-61.94394006 88.74887966 -61.95066929 87.37276065 -61.95767212 85.99664307 C-61.96960637 83.1186608 -61.97335706 80.2407982 -61.97216797 77.36279297 C-61.97196526 73.70368186 -61.99923326 70.04535164 -62.03371239 66.38642502 C-62.05612846 63.5448058 -62.06000102 60.70336996 -62.05894852 57.86167145 C-62.06240708 55.86611657 -62.08397812 53.87061893 -62.10604858 51.87518311 C-62.06084465 42.78127713 -60.9531189 34.70771239 -55.41015625 27.2578125 C-54.62769531 26.53851562 -53.84523438 25.81921875 -53.0390625 25.078125 C-52.16378906 24.26601563 -51.28851563 23.45390625 -50.38671875 22.6171875 C-45.8711745 18.70329361 -41.29737412 14.89877131 -36.6015625 11.203125 C-35.91320312 10.62433594 -35.22484375 10.04554687 -34.515625 9.44921875 C-24.33637921 1.16040432 -12.66527856 0.05020852 0 0 Z M-33.015625 12.2734375 C-38.21286994 18.59717888 -39.70982654 25.14048696 -39.76269531 33.21166992 C-39.77230286 34.40028122 -39.7819104 35.58889252 -39.79180908 36.81352234 C-39.79605896 38.0906459 -39.80030884 39.36776947 -39.8046875 40.68359375 C-39.80751488 41.33951319 -39.81034225 41.99543262 -39.81325531 42.67122841 C-39.82821161 46.14516217 -39.83746243 49.61905482 -39.84179688 53.09301758 C-39.84726395 56.65572532 -39.87126432 60.21804751 -39.89976883 63.78063488 C-39.91853001 66.54241481 -39.92360799 69.30410454 -39.92513275 72.06594276 C-39.92957644 74.01000543 -39.94815822 75.95401955 -39.96710205 77.897995 C-39.94141648 88.20588015 -38.87878532 96.8718039 -31.55859375 104.515625 C-20.49460496 114.0558309 -4.65102343 113.3474118 9.11328125 113.40625 C10.70143394 113.41480011 10.70143394 113.41480011 12.32167053 113.42352295 C14.53580754 113.43288587 16.74995794 113.43947177 18.96411133 113.44335938 C22.35196532 113.45317142 25.73923816 113.48431841 29.12695312 113.515625 C31.28905894 113.52214674 33.45116903 113.52740045 35.61328125 113.53125 C37.12582741 113.5497702 37.12582741 113.5497702 38.66893005 113.56866455 C42.47475167 113.55653846 45.84255923 113.34440749 49.53759766 112.40527344 C52.85974624 108.47378823 52.04396717 103.59240914 51.95703125 98.640625 C51.95469986 97.49779053 51.95236847 96.35495605 51.94996643 95.17749023 C51.94021756 92.75985253 51.91840468 90.34223809 51.88549805 87.92480469 C51.83613234 84.21775622 51.82402133 80.51203478 51.81835938 76.8046875 C51.80427227 74.45831917 51.78806748 72.1119624 51.76953125 69.765625 C51.76416855 68.6530835 51.75880585 67.54054199 51.75328064 66.39428711 C51.72929955 64.84753296 51.72929955 64.84753296 51.70483398 63.26953125 C51.69419418 62.36146729 51.68355438 61.45340332 51.67259216 60.51782227 C51.54324704 57.92960529 51.54324704 57.92960529 49.3984375 55.203125 C46.32651258 54.751578 46.32651258 54.751578 42.7109375 54.83984375 C41.72347534 54.83909599 41.72347534 54.83909599 40.71606445 54.83833313 C39.32402529 54.84067396 37.93198193 54.8504032 36.54003906 54.86694336 C34.406517 54.89053566 32.27424431 54.8875054 30.140625 54.88085938 C23.1754443 54.35439302 23.1754443 54.35439302 17.3984375 57.203125 C17.11982353 60.02023979 17.11982353 60.02023979 17.203125 63.3046875 C17.21279297 65.12226562 17.21279297 65.12226562 17.22265625 66.9765625 C17.23941406 68.24757813 17.25617188 69.51859375 17.2734375 70.828125 C17.28246094 72.106875 17.29148438 73.385625 17.30078125 74.703125 C17.32441447 77.86997667 17.35736121 81.03645924 17.3984375 84.203125 C14.1057493 84.12247865 10.81494529 84.00962221 7.5234375 83.890625 C6.11771484 83.85678711 6.11771484 83.85678711 4.68359375 83.82226562 C3.33974609 83.7690918 3.33974609 83.7690918 1.96875 83.71484375 C1.14133301 83.68865967 0.31391602 83.66247559 -0.53857422 83.63549805 C-2.6015625 83.203125 -2.6015625 83.203125 -4.6015625 80.203125 C-4.86225891 78.19213867 -4.86225891 78.19213867 -4.8762207 75.87109375 C-4.89051872 74.56458862 -4.89051872 74.56458862 -4.90510559 73.23168945 C-4.90419418 72.29413818 -4.90328278 71.35658691 -4.90234375 70.390625 C-4.90662888 69.42535889 -4.910914 68.46009277 -4.91532898 67.46557617 C-4.92107223 65.42464991 -4.92157258 63.38370317 -4.91723633 61.34277344 C-4.91407465 58.21514112 -4.9375417 55.08845295 -4.96289062 51.9609375 C-4.96516339 49.97916786 -4.96586722 47.99739568 -4.96484375 46.015625 C-4.9740535 45.07807373 -4.98326324 44.14052246 -4.99275208 43.17456055 C-4.98652328 42.30355713 -4.98029449 41.43255371 -4.97387695 40.53515625 C-4.97482109 39.38623901 -4.97482109 39.38623901 -4.9757843 38.21411133 C-4.49738608 35.64330362 -3.6466619 34.7904973 -1.6015625 33.203125 C2.25085372 31.91898626 5.91730446 32.02841508 9.93359375 31.9921875 C11.6464942 31.96413512 13.35938471 31.93547079 15.07226562 31.90625 C17.7738433 31.86487293 20.47523218 31.82798623 23.17700195 31.80175781 C25.78375457 31.77425592 28.38966317 31.72840583 30.99609375 31.6796875 C31.80756363 31.67643463 32.61903351 31.67318176 33.45509338 31.66983032 C35.96884001 31.64886515 35.96884001 31.64886515 39.3984375 31.203125 C41.57081112 27.94456456 41.65446401 26.97670156 41.6640625 23.203125 C41.66664062 22.23375 41.66921875 21.264375 41.671875 20.265625 C41.66027344 18.7496875 41.66027344 18.7496875 41.6484375 17.203125 C41.65617187 16.1925 41.66390625 15.181875 41.671875 14.140625 C41.66800781 12.6865625 41.66800781 12.6865625 41.6640625 11.203125 C41.66067871 9.8728125 41.66067871 9.8728125 41.65722656 8.515625 C41.54673112 5.92861555 41.54673112 5.92861555 39.3984375 3.203125 C37.15351996 2.73772189 37.15351996 2.73772189 34.51245117 2.79907227 C32.98396797 2.78004601 32.98396797 2.78004601 31.42460632 2.76063538 C29.76229729 2.76503883 29.76229729 2.76503883 28.06640625 2.76953125 C26.92367752 2.7642894 25.78094879 2.75904755 24.60359192 2.75364685 C22.17494519 2.74720871 19.74626736 2.74858665 17.31762695 2.75708008 C13.6389007 2.76550372 9.96177231 2.73699254 6.28320312 2.70507812 C-15.00125852 2.20531466 -15.00125852 2.20531466 -33.015625 12.2734375 Z " fill="#000000" transform="translate(61.6015625,-0.203125)"/>
<path d="M0 0 C0 0.99 0 1.98 0 3 C-1.51968384 3.02187378 -1.51968384 3.02187378 -3.07006836 3.04418945 C-6.86679531 3.10262428 -10.66295687 3.17984973 -14.45922852 3.26245117 C-16.09520214 3.29548975 -17.73128399 3.3235857 -19.36743164 3.34643555 C-33.14516247 3.08802458 -33.14516247 3.08802458 -45.59741211 8.1652832 C-50.02335323 13.9548302 -49.30675513 21.64787381 -49.30078125 28.55859375 C-49.30506638 29.66171402 -49.3093515 30.76483429 -49.31376648 31.90138245 C-49.31949208 34.22697261 -49.32002314 36.55258068 -49.31567383 38.87817383 C-49.31251351 42.42235044 -49.3359975 45.96569201 -49.36132812 49.50976562 C-49.36360136 51.77604062 -49.3643045 54.04231785 -49.36328125 56.30859375 C-49.372491 57.36090683 -49.38170074 58.41321991 -49.39118958 59.49742126 C-49.34949091 66.17760181 -49.00665906 72.65926771 -44.3125 77.875 C-38.03290819 80.92993655 -31.5403376 81.31655103 -24.6875 81.4140625 C-23.83317383 81.43342865 -22.97884766 81.4527948 -22.09863281 81.4727478 C-19.39918662 81.5320053 -16.69969651 81.57871122 -14 81.625 C-12.15753461 81.66322946 -10.31508614 81.70228399 -8.47265625 81.7421875 C-3.98186439 81.83919831 0.50877117 81.91919191 5 82 C5 72.43 5 62.86 5 53 C5.66 53 6.32 53 7 53 C7 63.56 7 74.12 7 85 C2.27155286 85.04640788 -2.45607517 85.08607809 -7.18457031 85.10986328 C-8.78648586 85.11979913 -10.38838389 85.13335247 -11.99023438 85.15087891 C-40.97047267 85.45956566 -40.97047267 85.45956566 -48 79 C-51.53364045 74.97896087 -52.12612646 71.62802427 -52.17700195 66.37036133 C-52.18983719 65.21518509 -52.20267242 64.06000885 -52.21589661 62.86982727 C-52.22328354 61.61985458 -52.23067047 60.3698819 -52.23828125 59.08203125 C-52.246353 57.79568283 -52.25442474 56.50933441 -52.26274109 55.18400574 C-52.27775735 52.45787692 -52.28759922 49.73177404 -52.29516602 47.00561523 C-52.30620078 43.52996885 -52.34056999 40.05496794 -52.38033772 36.57954884 C-52.41293171 33.24707009 -52.41729408 29.91465699 -52.42578125 26.58203125 C-52.44328934 25.34217972 -52.46079742 24.10232819 -52.47883606 22.8249054 C-52.46112454 15.73599908 -51.88885603 10.99662495 -48 5 C-36.7400858 -4.14520214 -13.5041313 -0.18376814 0 0 Z " fill="#000000" transform="translate(90,15)"/>
</svg>
