<?xml version="1.0" encoding="UTF-8"?>
<svg version="1.1" xmlns="http://www.w3.org/2000/svg" width="1962" height="1075">
<path d="M0 0 C4.4959467 0.00484681 8.9918554 -0.00787542 13.48778868 -0.01801741 C22.23149919 -0.03498041 30.97513718 -0.03609472 39.71885984 -0.03080451 C46.82788498 -0.02672584 53.93688905 -0.02824952 61.04591322 -0.03355277 C62.57638579 -0.0346754 62.57638579 -0.0346754 64.13777701 -0.03582071 C66.21168128 -0.03735246 68.28558555 -0.03889081 70.35948981 -0.04043568 C89.680488 -0.0540741 109.00144535 -0.04878013 128.32244255 -0.03725047 C145.96684743 -0.02728409 163.61114796 -0.04033271 181.25553678 -0.06418466 C199.45112109 -0.08859394 217.6466568 -0.09818168 235.84225714 -0.09153193 C246.02729744 -0.08804932 256.21225718 -0.09021062 266.39728498 -0.10778296 C275.04772631 -0.12252605 283.69803001 -0.12311061 292.34846871 -0.10571205 C296.75360002 -0.09722518 301.15848565 -0.09499669 305.56360388 -0.1103636 C309.60439625 -0.12428528 313.64473406 -0.11935295 317.68550064 -0.10012437 C319.13754436 -0.09638752 320.58962518 -0.09921858 322.04163562 -0.10973602 C338.92028202 -0.22319286 353.91992743 3.43246711 366.48969603 15.1919893 C376.30429557 25.69175901 379.66766832 40.67387079 379.70045042 54.71579301 C379.7049071 55.78672378 379.7049071 55.78672378 379.70945382 56.87928951 C379.71809203 59.26022754 379.71964494 61.641115 379.72114134 64.02206743 C379.72577312 65.73420637 379.73079826 67.44634428 379.7361865 69.158481 C379.7492813 73.8035453 379.75575022 78.44859516 379.76019716 83.09367502 C379.76313373 86.0007821 379.76723972 88.90788529 379.77170134 91.8149904 C379.78537105 100.92501418 379.79503923 110.035029 379.79890323 119.14506233 C379.80337725 129.63377297 379.82089686 140.12235287 379.84990382 150.61102378 C379.87158555 158.73529053 379.88161103 166.85952068 379.88294435 174.98381603 C379.8839881 179.82776904 379.88980338 184.67159906 379.90776396 189.51552141 C379.92435635 194.07922298 379.9263465 198.64271059 379.91762495 203.20643175 C379.91686041 204.8711715 379.92111931 206.53592329 379.9310832 208.20063341 C380.03219966 226.16442952 377.53831175 243.94209056 364.55219603 257.56308305 C361.35044649 260.52627086 357.99608734 263.2727758 354.58344603 265.9888643 C351.35609901 268.56990797 348.20445279 271.22620129 345.06000853 273.90683305 C340.29162521 277.95779965 335.48086235 281.95037199 330.63032103 285.9029268 C321.05138964 293.71475253 311.507709 301.56656142 302.09174681 309.57431352 C297.89672671 313.13711709 293.64086574 316.62008881 289.37250853 320.09433305 C286.24200941 322.668299 283.14837443 325.28262771 280.06000853 327.90683305 C275.29089643 331.95695904 270.48088421 335.95035418 265.63032103 339.9029268 C256.05138964 347.71475253 246.507709 355.56656142 237.09174681 363.57431352 C232.89672671 367.13711709 228.64086574 370.62008881 224.37250853 374.09433305 C221.24200296 376.66830429 218.14861345 379.28290155 215.06000853 381.90683305 C209.28023372 386.80716945 203.50120681 391.70190208 197.56000853 396.40683305 C196.74016478 397.05780962 195.92032103 397.70878618 195.07563353 398.3794893 C185.22744779 405.7656286 174.36054111 408.53579206 162.1568408 408.52708757 C161.43474424 408.52794359 160.71264769 408.52879961 159.96866941 408.52968156 C157.55328951 408.53133031 155.1379797 408.52582364 152.72260618 408.52035844 C150.95970935 408.52005198 149.19681239 408.52018583 147.43391562 408.5207237 C142.71868818 408.52094919 138.00348619 408.5151589 133.28826475 408.50811327 C128.86151122 408.50241274 124.43476384 408.50214984 120.00800657 408.50143754 C107.06700386 408.49619299 94.12600587 408.48223182 81.18500853 408.46933305 C52.26875853 408.44870805 23.35250853 408.42808305 -6.43999147 408.40683305 C-6.10999147 467.14683305 -5.77999147 525.88683305 -5.43999147 586.40683305 C-1.47999147 582.44683305 2.48000853 578.48683305 6.56000853 574.40683305 C11.93500853 569.90683305 11.93500853 569.90683305 14.65375853 567.74277055 C17.97511848 565.07318285 21.20783762 562.31384642 24.43500853 559.53183305 C30.57652109 554.24626292 36.75093723 549.00150079 42.94233274 543.77450883 C44.58909831 542.38223888 46.2331092 540.98677833 47.87641478 539.5904268 C52.860271 535.35829672 57.85560125 531.14945907 62.93500853 527.03183305 C68.05813919 522.86462181 73.03595781 518.54370848 78.01264524 514.20419633 C82.4973237 510.30274251 87.06473561 506.52205399 91.68500853 502.78183305 C95.19548606 499.88187335 98.62830787 496.89922111 102.06000853 493.90683305 C107.21852164 489.40935328 112.44157946 485.01687853 117.75922728 480.7076143 C121.63167646 477.52648101 125.42729636 474.2592975 129.22602415 470.99081743 C133.708676 467.13387925 138.20999941 463.30016003 142.73090696 459.48813188 C145.45679662 457.18935351 148.1744335 454.88213086 150.87641478 452.55527055 C166.79990211 438.87073056 181.40313342 429.05789407 203.08286619 429.13940752 C204.43857192 429.13261085 204.43857192 429.13261085 205.82166564 429.12567687 C208.82125131 429.11311363 211.82065353 429.114648 214.82026243 429.11630571 C216.98294382 429.11031534 219.14562307 429.10350862 221.30829954 429.09595048 C227.16397834 429.07833327 233.01959862 429.07359685 238.87530136 429.07231891 C242.54026374 429.07089412 246.2052114 429.06661826 249.87017012 429.06132448 C262.67483283 429.04283703 275.479454 429.03465209 288.28412962 429.03622758 C300.18902005 429.03742802 312.09372891 429.01634146 323.99857342 428.98474026 C334.24438419 428.95851957 344.49013588 428.94786274 354.73597991 428.9491384 C360.84421342 428.94964641 366.95228551 428.94405279 373.06048536 428.9227823 C378.81112396 428.90330268 384.56144879 428.90334167 390.31209898 428.91781557 C392.41139136 428.91989286 394.51070388 428.91526792 396.60996199 428.90309465 C415.57803372 428.80030916 434.05327998 430.52934227 448.52485228 444.1841768 C457.85650589 454.3755605 461.67494215 468.05357111 461.6942296 481.62848794 C461.69658183 482.33635767 461.69893406 483.04422739 461.70135757 483.77354771 C461.70801463 486.14557757 461.70759035 488.51755223 461.70717955 490.88959062 C461.71048023 492.60753327 461.71420623 494.32547514 461.71832103 496.04341602 C461.728326 500.76482913 461.73205541 505.48622953 461.73471034 510.20765173 C461.73861789 515.29992989 461.74819596 520.39219802 461.7569232 525.48446977 C461.77667562 537.78322768 461.7867526 550.0819864 461.79565099 562.3807562 C461.80003619 568.17555768 461.80540242 573.97035825 461.81063986 579.76515901 C461.82765147 599.03407861 461.84214476 618.30299765 461.8493886 637.57192361 C461.85129843 642.57109265 461.85321877 647.57026169 461.85517454 652.56943071 C461.85565828 653.81191771 461.85614202 655.05440471 461.85664042 656.33454283 C461.86493744 676.45367769 461.89026913 696.57275303 461.92275522 716.69186191 C461.95585159 737.3577971 461.97383972 758.02370206 461.97703284 778.68966389 C461.97919562 790.28869613 461.98791032 801.88764159 462.01349401 813.48664796 C462.03523627 823.3667485 462.04323411 833.24674118 462.03352723 843.12686293 C462.02899268 848.1637839 462.03081954 853.2004825 462.05028868 858.23737276 C462.06799373 862.85798614 462.06686348 867.47821612 462.05139139 872.09883399 C462.0490264 873.76111337 462.05328056 875.42341982 462.06522004 877.085658 C462.18573657 894.98828527 459.31018076 911.70713643 446.37250853 925.03183305 C441.01249527 930.13798912 435.35983571 934.81323773 429.56000853 939.40683305 C423.10730925 944.6367176 416.72559593 949.9423847 410.39643431 955.32040727 C406.09889228 958.96638237 401.74343051 962.53660585 397.37250853 966.09433305 C394.24201001 968.6682985 391.14835219 971.28260209 388.06000853 973.90683305 C381.40967201 979.55541249 374.65879847 985.07506813 367.88813353 990.57870805 C362.33956569 995.1009512 356.85086057 999.68566584 351.39643431 1004.32040727 C347.09889228 1007.96638237 342.74343051 1011.53660585 338.37250853 1015.09433305 C335.24200941 1017.668299 332.14837443 1020.28262771 329.06000853 1022.90683305 C324.29089643 1026.95695904 319.48088421 1030.95035418 314.63032103 1034.9029268 C310.80781476 1038.02026334 306.99473414 1041.14889597 303.18500853 1044.28183305 C302.08986937 1045.18180009 302.08986937 1045.18180009 300.97260618 1046.09994829 C297.04919757 1049.33132455 293.15488756 1052.59158155 289.29731321 1055.90121782 C275.77197003 1067.48295854 264.30029663 1075.58523045 245.93293619 1075.53826082 C244.80532706 1075.54133977 244.80532706 1075.54133977 243.65493795 1075.54448092 C241.13350675 1075.55013962 238.61213037 1075.54869503 236.09069395 1075.54727495 C234.26524808 1075.54985931 232.43980277 1075.55287268 230.61435825 1075.55627835 C225.59511828 1075.56434477 220.57589262 1075.56613774 215.55664694 1075.56687582 C210.14297882 1075.56872727 204.72931811 1075.57627564 199.31565428 1075.58301103 C187.46913132 1075.59659785 175.62261174 1075.60262116 163.77608228 1075.60702169 C156.36750721 1075.60978659 148.95893344 1075.61402469 141.55035925 1075.61852586 C121.01101816 1075.63072478 100.47167811 1075.64101909 79.93233347 1075.64440095 C77.95981854 1075.6447303 77.95981854 1075.6447303 75.94745483 1075.64506631 C74.62937183 1075.64528458 73.31128884 1075.64550286 71.95326394 1075.64572775 C69.28254664 1075.64617029 66.61182934 1075.64661741 63.94111204 1075.64706743 C62.94783857 1075.64723151 62.94783857 1075.64723151 61.93449896 1075.64739892 C39.86105543 1075.65113146 17.78765063 1075.66836376 -4.28577963 1075.69242695 C-26.29764184 1075.7162275 -48.30948693 1075.72860694 -70.3213622 1075.72976887 C-82.66483164 1075.73068138 -95.00825657 1075.73632484 -107.35171366 1075.75458848 C-117.87763271 1075.77010813 -128.40349354 1075.77504131 -138.92942188 1075.76685038 C-144.28637555 1075.7629838 -149.6432124 1075.76367359 -155.00015116 1075.77790773 C-198.04459788 1075.8854793 -239.66311052 1072.55794097 -281.43999147 1061.40683305 C-282.31800417 1061.17383501 -283.19601686 1060.94083696 -284.10063601 1060.70077837 C-297.67057942 1057.03350568 -310.56929672 1052.03182096 -323.43999147 1046.40683305 C-324.25854616 1046.052502 -325.07710085 1045.69817094 -325.92046022 1045.33310258 C-362.74031365 1029.22817077 -398.07741265 1002.48130733 -422.43999147 970.40683305 C-422.86731569 969.85060258 -423.29463991 969.29437212 -423.73491335 968.72128618 C-430.66615222 959.66643369 -436.87220832 950.35688132 -442.43999147 940.40683305 C-442.86248171 939.65756547 -443.28497194 938.9082979 -443.72026491 938.13632524 C-471.31623573 888.72966018 -483.61568161 831.72784538 -483.58043337 775.39792192 C-483.58302334 773.72017589 -483.58603824 772.04243048 -483.58943677 770.36468589 C-483.59743624 765.79098839 -483.59929237 761.21730664 -483.60003424 756.64360297 C-483.60189728 751.69571286 -483.60945091 746.74783069 -483.61616945 741.79994524 C-483.62970447 730.99538664 -483.63577034 720.19083177 -483.64018011 709.38626611 C-483.64295153 702.62559879 -483.64719056 695.86493289 -483.65168428 689.10426652 C-483.66387215 670.34632016 -483.67417143 651.58837491 -483.67755938 632.83042467 C-483.67777894 631.63171022 -483.67799851 630.43299578 -483.67822473 629.19795665 C-483.67844301 627.9965401 -483.67866128 626.79512356 -483.67888618 625.55730045 C-483.67932962 623.12319283 -483.67977619 620.6890852 -483.68022585 618.25497758 C-483.68044728 617.04760248 -483.68066871 615.84022737 -483.68089685 614.59626514 C-483.68483845 595.0658621 -483.70227514 575.53549653 -483.72558537 556.00510794 C-483.74938371 535.90159777 -483.76176512 515.79810633 -483.76292729 495.69458187 C-483.76383946 484.42835164 -483.76947505 473.1621702 -483.78774691 461.89595354 C-483.80326308 452.29569947 -483.8082014 442.69550925 -483.8000088 433.095245 C-483.79614219 428.21049027 -483.79683248 423.32586365 -483.81106615 418.44112527 C-484.01088211 345.60661967 -471.10847946 271.56593862 -418.43999147 217.40683305 C-417.89052858 216.83690629 -417.34106569 216.26697954 -416.77495241 215.67978227 C-410.24735735 208.93168497 -403.64655089 202.50843435 -396.27592897 196.67245805 C-392.97202058 194.03297201 -389.76700818 191.29324946 -386.56499147 188.53183305 C-380.42359484 183.24612931 -374.24906145 178.00149968 -368.05766726 172.77450883 C-366.41090169 171.38223888 -364.7668908 169.98677833 -363.12358522 168.5904268 C-358.139729 164.35829672 -353.14439875 160.14945907 -348.06499147 156.03183305 C-342.94186081 151.86462181 -337.96404219 147.54370848 -332.98735476 143.20419633 C-328.5026763 139.30274251 -323.93526439 135.52205399 -319.31499147 131.78183305 C-315.80451394 128.88187335 -312.37169213 125.89922111 -308.93999147 122.90683305 C-303.78147836 118.40935328 -298.55842054 114.01687853 -293.24077272 109.7076143 C-289.36832354 106.52648101 -285.57270364 103.2592975 -281.77397585 99.99081743 C-276.22580428 95.21709074 -270.64124793 90.48752298 -265.04887819 85.76571977 C-262.88736483 83.94007738 -260.72748357 82.1125124 -258.5681653 80.28427446 C-257.48157729 79.36501676 -256.39417239 78.44672379 -255.30595827 77.52939165 C-252.62881033 75.27086104 -249.96598879 72.99918631 -247.33061647 70.6919893 C-179.98425224 12.05348048 -86.18471745 -0.15756981 0 0 Z M-37.07941103 14.31753862 C-37.78279236 14.35771119 -38.48617369 14.39788376 -39.2108696 14.43927369 C-103.98973686 18.22753752 -171.65249794 31.54026352 -224.43999147 71.40683305 C-225.31268679 72.05394243 -226.1853821 72.7010518 -227.08452272 73.36777055 C-252.23143131 92.91360119 -269.98691635 117.87602182 -283.43999147 146.40683305 C-283.96335085 147.51155962 -284.48671022 148.61628618 -285.02592897 149.7544893 C-301.14282473 185.52717591 -306.60270409 225.74132139 -306.58043337 264.66218889 C-306.58302198 266.48756462 -306.5860365 268.31293979 -306.58943677 270.13831419 C-306.59745233 275.12472743 -306.59929329 280.11112623 -306.60003424 285.09754515 C-306.60189443 290.48785608 -306.60944672 295.8781597 -306.61616945 301.26846635 C-306.62971624 313.04412767 -306.63577226 324.81978557 -306.64018011 336.59545338 C-306.64294968 343.96132784 -306.6471884 351.327201 -306.65168428 358.69307458 C-306.66387397 379.1229027 -306.67417271 399.55272979 -306.67755938 419.98256147 C-306.67777894 421.28864504 -306.67799851 422.59472861 -306.67822473 423.94039047 C-306.67844301 425.24945325 -306.67866128 426.55851602 -306.67888618 427.90724736 C-306.67932963 430.55953439 -306.67977619 433.21182142 -306.68022585 435.86410844 C-306.68044728 437.17971118 -306.68066871 438.49531392 -306.68089685 439.85078342 C-306.68483875 461.13367739 -306.70227556 482.41653494 -306.72558537 503.69941735 C-306.74937331 525.59735542 -306.76176466 547.49527632 -306.76292729 569.39322752 C-306.76384007 581.66886876 -306.76949128 593.94446526 -306.78774691 606.22009408 C-306.80324894 616.68041927 -306.80820953 627.14068588 -306.8000088 637.60102039 C-306.79613724 642.92524701 -306.79685778 648.24935607 -306.81106615 653.57356775 C-306.98431841 722.58172664 -296.91603576 793.38972305 -247.43999147 845.40683305 C-246.64963503 846.24601274 -246.64963503 846.24601274 -245.84331179 847.10214555 C-227.72104214 866.23177325 -206.29952542 880.35593022 -182.43999147 891.40683305 C-181.69007936 891.75955278 -180.94016726 892.11227251 -180.16753054 892.47568071 C-141.30744642 910.58003967 -98.22545342 918.41965583 -55.75249147 922.15683305 C-55.08321627 922.21599901 -54.41394106 922.27516496 -53.72438478 922.33612382 C-48.96644626 922.74798226 -44.2047218 923.0859915 -39.43999147 923.40683305 C-38.13612647 923.49559803 -36.83226147 923.58436302 -35.4888854 923.67581785 C-17.00557942 924.78974368 1.52324086 924.57123773 20.03178442 924.58153486 C25.24854425 924.58548302 30.46529463 924.59505654 35.68204832 924.60374773 C48.23409115 924.62337005 60.78613462 924.63355289 73.33818892 924.64247552 C78.07392924 924.64599187 82.80966892 924.65013734 87.5454087 924.65431518 C108.450182 924.67275548 129.35495534 924.68850905 150.25973558 924.69621313 C155.35779207 924.69812262 160.45584855 924.70004303 165.55390501 924.70199907 C166.82080625 924.70248281 168.08770749 924.70296655 169.39299967 924.70346495 C189.94767071 924.71177792 210.5022838 924.73714795 231.05692951 924.76957975 C252.20246479 924.80267028 273.34797058 924.82066305 294.49353188 924.82385737 C306.34944041 924.82601888 318.20526402 924.83471697 330.06114721 924.86031854 C340.14766112 924.88205144 350.23406939 924.89006256 360.32060406 924.88035176 C365.4609162 924.87581678 370.60101043 924.87764738 375.74129248 924.8971132 C380.45567643 924.91481182 385.16968454 924.91369325 389.88407286 924.89821591 C391.58022389 924.8958502 393.27640142 924.90010893 394.9725121 924.91204456 C410.50158403 925.01446971 425.63635867 923.61598012 437.51313353 912.59433305 C449.13236883 900.48689459 448.86208988 883.56520174 448.81397581 867.78305376 C448.816284 866.12307827 448.81946291 864.46310381 448.8234303 862.80313146 C448.83173775 858.26995021 448.82767153 853.73685375 448.82145786 849.20367229 C448.81691773 844.3038067 448.82392486 839.40395531 448.82941771 834.50409257 C448.83829671 824.91641911 448.83639635 815.32877702 448.83059242 805.74110234 C448.82607006 797.94686617 448.82546552 790.15263876 448.82764006 782.35840166 C448.82794652 781.24779699 448.82825299 780.13719233 448.82856874 778.99293298 C448.82920821 776.73654616 448.82985664 774.48015934 448.83051392 772.22377253 C448.83621285 751.08077472 448.8296662 729.93779428 448.81891319 708.79479933 C448.80997808 690.66514302 448.81153025 672.53551233 448.82075071 654.40585649 C448.83146108 633.33693302 448.83566356 612.26802476 448.82952619 591.19909894 C448.82888911 588.95115412 448.82826037 586.70320928 448.82764006 584.45526445 C448.82733151 583.34932052 448.82702295 582.24337659 448.82670505 581.10391921 C448.82498041 573.32179961 448.82788824 565.53968968 448.83259916 557.75757158 C448.8382165 548.26984715 448.8366736 538.7821558 448.82603768 529.29443514 C448.82079247 524.45651003 448.81870459 519.61864001 448.82533598 514.78071535 C448.83132138 510.34691445 448.82797778 505.91321943 448.81738088 501.47942805 C448.8151578 499.88066159 448.81625841 498.28188607 448.82113245 496.6831255 C448.86580604 480.80402474 448.24318779 465.4153592 436.75922728 453.3794893 C426.32886971 444.02366235 412.43989527 442.24566038 398.94755125 442.27312028 C398.11754909 442.27085473 397.28754693 442.26858917 396.43239319 442.26625496 C393.67071798 442.25996056 390.90909243 442.26074139 388.14741087 442.26156938 C386.15911881 442.25857498 384.17082733 442.25517181 382.1825366 442.25139177 C376.79380931 442.24257469 371.40509791 442.24021458 366.0163641 442.23957598 C362.64457456 442.23886401 359.27278904 442.23672687 355.9010005 442.23407876 C344.12310865 442.2248319 332.3452281 442.22074293 320.56733274 442.22153032 C309.6133938 442.22213046 298.6595042 442.21158932 287.70557773 442.19578665 C278.28191869 442.18267935 268.85827571 442.17734778 259.43460763 442.17798573 C253.81494592 442.17823984 248.19532806 442.17543692 242.57567549 442.16480768 C237.28477744 442.15507327 231.99396467 442.15508391 226.70306349 442.16232431 C224.77064212 442.16336364 222.83821528 442.16104639 220.9058032 442.15496385 C194.82820661 442.02344432 194.82820661 442.02344432 172.56000853 454.40683305 C162.94401364 464.31152986 161.38956731 477.86811988 161.43975401 491.07553422 C161.43889958 491.91133075 161.43804516 492.74712728 161.43716484 493.60825098 C161.43552713 496.38879022 161.44100325 499.16926818 161.44648314 501.9498018 C161.4467654 503.95095637 161.4466065 505.95211104 161.44604063 507.95326555 C161.4457542 513.3720496 161.45162605 518.79081142 161.45861459 524.20959032 C161.46487376 529.87771305 161.46545395 535.54583631 161.46664 541.21396196 C161.46974575 551.94119693 161.47794896 562.66842169 161.48798949 573.39565217 C161.49917408 585.61083971 161.50466699 597.82602773 161.50968492 610.04121912 C161.5201322 635.16309609 161.53771702 660.284964 161.56000853 685.40683305 C143.95634835 685.36953813 126.3529288 685.30949039 108.74944544 685.22293031 C100.57439901 685.1832527 92.39944727 685.15080329 84.22431517 685.13583696 C77.09238461 685.12276158 69.9606634 685.09564848 62.82885081 685.05221999 C59.05843949 685.0297363 55.28828509 685.0139144 51.51780081 685.0149492 C47.95617051 685.01570367 44.39510527 684.99744382 40.8336215 684.96566522 C38.92929076 684.95331658 37.02486441 684.96016846 35.12050962 684.96797502 C22.17497782 684.81447662 10.21181729 682.04965629 -0.43999147 674.40683305 C-1.51249147 673.66433305 -2.58499147 672.92183305 -3.68999147 672.15683305 C-16.81524747 659.03157705 -19.52214368 639.69128802 -19.58305907 621.99664432 C-19.58219259 620.79645225 -19.58132611 619.59626018 -19.58043337 618.35969865 C-19.58489005 616.41724302 -19.58489005 616.41724302 -19.58943677 614.43554586 C-19.59745525 610.86106533 -19.59929344 607.28660494 -19.60003424 603.71211648 C-19.60189382 599.84894145 -19.60944563 595.98577665 -19.61616945 592.12260759 C-19.62971648 583.68432025 -19.63577178 575.24603769 -19.64018011 566.80774128 C-19.64294861 561.53251852 -19.64718705 556.25729758 -19.65168428 550.98207605 C-19.66387207 536.35821559 -19.67417244 521.73435658 -19.67755938 507.11049116 C-19.67777894 506.17563186 -19.67799851 505.24077256 -19.67822473 504.2775842 C-19.67844301 503.34057099 -19.67866128 502.40355778 -19.67888618 501.43815023 C-19.67932963 499.53960895 -19.67977619 497.64106768 -19.68022585 495.74252641 C-19.68044728 494.8007974 -19.68066871 493.85906838 -19.68089685 492.88880212 C-19.68484249 477.63915879 -19.7022916 462.38956332 -19.72558537 447.13993847 C-19.7493426 431.45952231 -19.76176321 415.77913013 -19.76292729 400.0986957 C-19.76384158 391.30434728 -19.76953169 382.51006123 -19.78774691 373.71573007 C-19.803207 366.22554471 -19.80823369 358.73544101 -19.8000088 351.24524271 C-19.79612315 347.42955936 -19.79692883 343.61404016 -19.81106615 339.79837739 C-19.9754831 292.65319628 -19.9754831 292.65319628 -3.43999147 275.40683305 C11.17317499 261.80041918 31.8154172 258.25513699 51.04462767 258.26207292 C52.19567047 258.25854608 53.34671328 258.25501923 54.53263617 258.25138551 C57.71451311 258.24257826 60.89636132 258.23814467 64.07824826 258.23554254 C67.51539903 258.2316341 70.95253416 258.22199726 74.38967466 258.2129854 C80.34380857 258.19806973 86.29794125 258.18651443 92.25208616 258.1770376 C100.87705637 258.16313228 109.5019976 258.14193872 118.12694693 258.11860906 C132.14287597 258.08071239 146.15881028 258.04574664 160.17475462 258.01401079 C161.01320543 258.01211029 161.85165625 258.0102098 162.71551466 258.00825172 C174.59996684 257.98145054 186.4844231 257.9575668 198.36888373 257.93486672 C199.62292166 257.93247077 199.62292166 257.93247077 200.90229368 257.93002641 C201.73729332 257.92843295 202.57229295 257.92683948 203.43259561 257.92519773 C217.38743415 257.89836997 231.34224184 257.86394502 245.29704714 257.82337266 C253.8922811 257.79868501 262.48748201 257.78030974 271.08274573 257.77021705 C276.98189887 257.76278915 282.88100756 257.74820771 288.78013116 257.72815282 C292.17641982 257.7168362 295.57257565 257.7097163 298.96889257 257.70916116 C328.95056627 258.82813114 328.95056627 258.82813114 355.03657103 246.18808305 C365.17833848 234.33001649 366.0079243 221.09284303 365.94819212 206.1763643 C365.95226441 204.458618 365.95760996 202.74087433 365.9641223 201.02313554 C365.97772352 196.38676643 365.97252715 191.75059904 365.96298504 187.1142267 C365.95535097 182.24536694 365.96244441 177.37652362 365.96714354 172.50766313 C365.97259022 164.33372232 365.96543808 156.15986303 365.95112181 147.98593462 C365.93479741 138.55700749 365.94008669 129.12827503 365.95660102 119.69935262 C365.97024694 111.58096253 365.9721204 103.46263078 365.96428502 95.34423292 C365.95962554 90.50549893 365.9589359 85.66685622 365.96889448 80.82812822 C365.97760721 76.27747498 365.97146415 71.72707094 365.95421171 67.17644441 C365.95026975 65.51367547 365.95134128 63.85088529 365.95799971 62.18812501 C366.00956936 47.99337657 364.56092765 35.38851 354.74360228 24.36777055 C343.69081412 13.87320402 328.8929215 13.10308591 314.41952085 13.15286577 C313.00452719 13.15055764 311.58953473 13.14737877 310.17454475 13.14341128 C306.30833064 13.13510039 302.44221589 13.13917189 298.57600152 13.14538372 C294.39618469 13.14992349 290.21638451 13.14291619 286.03657103 13.13742387 C277.84995329 13.12853866 269.66337228 13.13044971 261.47675312 13.13624915 C254.80680837 13.14077677 248.13687386 13.14137377 241.46692801 13.13920152 C240.51533786 13.13889506 239.56374771 13.13858859 238.58332149 13.13827284 C236.64949842 13.13763331 234.71567536 13.13698489 232.7818523 13.13632765 C214.64592947 13.13062491 196.51002686 13.13717737 178.37410735 13.14792839 C162.88455053 13.15682785 147.39502376 13.15534166 131.90546751 13.14609087 C113.87058596 13.13532477 95.83572225 13.13121196 77.80083793 13.13731539 C75.86671969 13.13795238 73.93260143 13.13858112 71.99848318 13.13920152 C71.04721172 13.13951007 70.09594026 13.13981862 69.11584239 13.14013653 C62.48318821 13.14184729 55.85054552 13.138983 49.21789312 13.13424242 C41.09075024 13.12856112 32.96364583 13.13029734 24.83650721 13.1408039 C20.70661189 13.14597079 16.57678007 13.14827708 12.44688559 13.1415056 C-4.09102774 13.11674238 -20.56579049 13.36675756 -37.07941103 14.31753862 Z " fill="#353535" transform="translate(483.4399914741516,-0.40683305263519287)"/>
<path d="M0 0 C2.20400843 -0.00570998 4.40801391 -0.01267666 6.61201477 -0.02079773 C12.57084194 -0.03867614 18.52952142 -0.03757057 24.48836732 -0.03185534 C29.47562004 -0.02875537 34.46284473 -0.03486503 39.45009345 -0.04089409 C51.89481374 -0.05572117 64.33946869 -0.05214069 76.78418579 -0.04003078 C87.55952167 -0.03010477 98.33468567 -0.0430335 109.10999504 -0.06696498 C120.20831291 -0.09142566 131.30656169 -0.10054813 142.40490741 -0.09431225 C148.62205638 -0.09095241 154.83906346 -0.0932928 161.0561924 -0.11056328 C166.90618049 -0.12610587 172.75584225 -0.1219959 178.60581779 -0.10325813 C180.74261541 -0.09959226 182.87943761 -0.10262169 185.01621246 -0.11314392 C202.85606226 -0.19423028 219.2801673 1.15857072 233.43823242 13.40014648 C248.5931323 29.01341763 248.5806241 50.82667494 248.52836609 71.14526367 C248.53381444 73.3122219 248.54056968 75.47917716 248.54850799 77.6461277 C248.56644154 83.5616347 248.56598752 89.47701558 248.56237853 95.39254332 C248.56175243 101.78634361 248.57839574 108.18010241 248.59289551 114.57388306 C248.61564598 125.63859401 248.62766481 136.70327253 248.63202477 147.76800537 C248.63664019 159.36571798 248.6474553 170.96339787 248.66645241 182.56109619 C248.66763254 183.28366938 248.66881266 184.00624256 248.67002855 184.7507119 C248.67605442 188.42067216 248.68219011 192.09063222 248.68836806 195.76059222 C248.73186749 221.71823449 248.76161439 247.67587596 248.78320312 273.63354492 C248.80420084 298.84254124 248.83147176 324.0515181 248.8671875 349.26049805 C248.86883672 350.4271872 248.86883672 350.4271872 248.87051925 351.61744583 C248.8815681 359.42874684 248.89274397 367.24004766 248.90401287 375.05134836 C248.92696365 390.96220974 248.94906694 406.87307226 248.97065735 422.78393555 C248.97165097 423.51540413 248.97264459 424.2468727 248.97366832 425.000507 C249.03986219 473.80167323 249.0862421 522.60286147 249.12963867 571.40405273 C249.93353027 570.66147217 250.73742188 569.9188916 251.56567383 569.15380859 C252.64161643 568.16293233 253.7176293 567.17213236 254.79370117 566.18139648 C255.3210083 565.69392944 255.84831543 565.2064624 256.39160156 564.70422363 C260.53483577 560.89378572 264.83153186 557.31419929 269.21557617 553.78295898 C272.56945934 551.04500343 275.85159851 548.23192231 279.12963867 545.40405273 C283.23182612 541.86781778 287.35766353 538.37541447 291.56713867 534.96655273 C296.67271332 530.82344282 301.62763921 526.52174823 306.58251953 522.20117188 C311.06714718 518.29983632 315.63445537 514.51920112 320.25463867 510.77905273 C323.76511621 507.87909303 327.19793802 504.89644079 330.62963867 501.90405273 C335.78815179 497.40657296 341.01120961 493.01409821 346.32885742 488.70483398 C350.20130661 485.52370069 353.9969265 482.25651719 357.7956543 478.98803711 C363.34382587 474.21431042 368.92838221 469.48474267 374.52075195 464.76293945 C376.68236002 462.93721707 378.84226954 461.10949235 381.00195312 459.28149414 C382.08745623 458.36287879 383.17323126 457.44458467 384.25927734 456.52661133 C386.94792694 454.25361591 389.63266427 451.97631363 392.30932617 449.68920898 C398.13429587 444.71841362 404.00641315 439.80463659 409.94213867 434.96655273 C410.54010254 434.47034424 411.13806641 433.97413574 411.75415039 433.46289062 C417.63952828 428.70831707 423.72743432 425.45647305 431.12963867 423.71655273 C432.07838867 423.48581055 433.02713867 423.25506836 434.00463867 423.01733398 C440.57456155 421.72798662 446.94087477 421.25587843 453.61474609 421.26361084 C454.43108646 421.26063972 455.24742683 421.2576686 456.08850479 421.25460744 C458.80404962 421.24598654 461.51955003 421.24441782 464.23510742 421.24291992 C466.19059848 421.23828698 468.14608864 421.23326168 470.10157776 421.22787476 C475.40159575 421.21479264 480.70160109 421.20831372 486.00163269 421.2038641 C489.31916471 421.20092594 492.63669333 421.1968197 495.95422363 421.19235992 C506.35209829 421.17869457 516.74996512 421.16902382 527.14784813 421.16515803 C539.11656493 421.16068279 551.08516722 421.1431556 563.05384922 421.11415744 C572.3272223 421.0924762 581.60056332 421.08245029 590.87396145 421.08111691 C596.40205231 421.08007328 601.93003538 421.07426032 607.45809937 421.0562973 C612.66531392 421.03970541 617.87234096 421.03771458 623.07957268 421.04643631 C624.97890669 421.04720083 626.87825125 421.04294227 628.77755928 421.03297806 C647.84011671 420.9389266 667.51554307 422.03000972 681.94213867 436.01733398 C695.06149976 450.33149403 696.43498373 467.12216968 696.39706421 485.67790222 C696.40080552 487.4207853 696.40540895 489.16366669 696.41079485 490.90654546 C696.42298077 495.67368793 696.42276961 500.44075999 696.4204061 505.20791447 C696.41999682 510.3580521 696.43104769 515.5081675 696.44052124 520.65829468 C696.4571079 530.74007374 696.46262973 540.82182941 696.463746 550.90362098 C696.46469756 559.10164234 696.46881324 567.29965601 696.47514725 575.49767494 C696.49275312 598.75941312 696.50198712 622.02113288 696.5004863 645.28287777 C696.50036643 647.16249194 696.50036643 647.16249194 696.50024414 649.08007812 C696.50016238 650.33469069 696.50008062 651.58930325 696.49999638 652.88193438 C696.49918362 673.21091683 696.51832057 693.53982516 696.54652087 713.86878618 C696.57527284 734.76088622 696.5890599 755.65295014 696.58733332 776.54507047 C696.58667023 788.26698362 696.59212708 799.98881905 696.61368942 811.71071434 C696.63193161 821.69134323 696.63622357 831.67185918 696.62267058 841.65249755 C696.61615636 846.74007968 696.61596774 851.82744532 696.63337708 856.91500664 C696.64918129 861.58168673 696.64616966 866.24798 696.62880881 870.91465107 C696.62575503 872.59360164 696.62930938 874.27258161 696.64052896 875.95149746 C696.75369066 894.10220536 693.71784962 911.12284995 680.84448242 924.76733398 C675.52171182 929.93693133 669.851526 934.68534278 664.12963867 939.40405273 C663.15381836 940.21100586 662.17799805 941.01795898 661.17260742 941.84936523 C658.49964096 944.0443334 655.8167814 946.22647188 653.12963867 948.40405273 C646.6834561 953.64216595 640.29539016 958.93946496 633.96606445 964.31762695 C629.66852243 967.96360205 625.31306066 971.53382554 620.94213867 975.09155273 C617.81164016 977.66551818 614.71798234 980.27982177 611.62963867 982.90405273 C604.97930216 988.55263217 598.22842861 994.07228781 591.45776367 999.57592773 C585.90919584 1004.09817088 580.42049072 1008.68288553 574.96606445 1013.31762695 C570.66852243 1016.96360205 566.31306066 1020.53382554 561.94213867 1024.09155273 C558.81163955 1026.66551868 555.71800458 1029.2798474 552.62963867 1031.90405273 C547.86470725 1035.95062833 543.05992832 1039.94167566 538.21166992 1043.88842773 C535.06903919 1046.45351543 531.93873276 1049.03300848 528.81079102 1051.6159668 C526.59333408 1053.44494651 524.37151794 1055.26852122 522.14916992 1057.09155273 C519.81412755 1059.00859704 517.50101302 1060.94119615 515.20385742 1062.90405273 C503.53659645 1072.7291146 491.52061753 1075.71981592 476.55361748 1075.66132164 C475.41145134 1075.66482771 474.26928519 1075.66833379 473.09250796 1075.67194611 C469.26115749 1075.68125789 465.42995908 1075.67633725 461.59860229 1075.67147827 C458.82553049 1075.6741114 456.0524665 1075.67973642 453.27939904 1075.68520892 C447.24792827 1075.69550348 441.2164896 1075.69835365 435.18501091 1075.69629669 C426.21565778 1075.69324529 417.24634014 1075.70157381 408.27699392 1075.71204594 C391.32448877 1075.73138584 374.37199572 1075.73701417 357.41948085 1075.73816006 C344.32676204 1075.73907926 331.23404798 1075.74319655 318.14133072 1075.74956131 C314.37212662 1075.75135641 310.60292252 1075.75313604 306.83371842 1075.75491107 C305.89667056 1075.75535316 304.95962271 1075.75579526 303.99417946 1075.75625075 C277.63702929 1075.76855897 251.27988076 1075.7764519 224.92272758 1075.77556419 C223.43218878 1075.77551746 223.43218878 1075.77551746 221.91153809 1075.77546978 C216.8751373 1075.77530356 211.83873651 1075.77510548 206.80233572 1075.77490036 C205.80209635 1075.77486047 204.80185697 1075.77482058 203.77130731 1075.77477948 C201.74857909 1075.77469861 199.72585087 1075.77461501 197.70312265 1075.7745287 C166.23655222 1075.77330334 134.7700249 1075.78831373 103.3034668 1075.81567383 C67.94701046 1075.84640354 32.59058244 1075.86360577 -2.76588809 1075.86174738 C-6.53697832 1075.86159812 -10.30806855 1075.86150071 -14.07915878 1075.86143875 C-15.00768921 1075.86141544 -15.93621963 1075.86139213 -16.89288734 1075.86136812 C-31.82721575 1075.86130661 -46.7615067 1075.87407154 -61.69582397 1075.89130328 C-76.70914244 1075.90826771 -91.72240618 1075.91022726 -106.73572893 1075.89708464 C-115.6509272 1075.8897008 -124.56595905 1075.89333648 -133.48113963 1075.91296932 C-139.44258802 1075.92498641 -145.40391614 1075.92235908 -151.36535905 1075.90802832 C-154.75796938 1075.90027965 -158.14999678 1075.90089922 -161.54262544 1075.91494302 C-182.06540203 1075.99425723 -200.04866069 1075.33141605 -215.80004883 1060.62280273 C-227.72440736 1047.84349019 -229.02411804 1030.98882704 -229.00458241 1014.40635014 C-229.0065368 1012.96365177 -229.0089262 1011.52095394 -229.01171038 1010.07825693 C-229.01810256 1006.10507271 -229.01827262 1002.13190873 -229.01743297 998.15872034 C-229.01760262 993.83931788 -229.02351048 989.51992264 -229.02867383 985.20052379 C-229.03799819 976.62953465 -229.0419216 968.05855066 -229.04419279 959.48755708 C-229.04715528 949.22269731 -229.05585294 938.95784439 -229.06460707 928.69298821 C-229.08545019 903.88219285 -229.09592091 879.07139631 -229.10473668 854.26059424 C-229.10894322 842.52382702 -229.11416519 830.78706031 -229.11942121 819.05029353 C-229.13731093 778.87563765 -229.15230722 738.70098163 -229.1597414 698.52632236 C-229.16021616 696.00420817 -229.16069205 693.48209397 -229.16116906 690.95997977 C-229.16140544 689.70923725 -229.16164182 688.45849472 -229.16188535 687.16985091 C-229.16308655 680.8329605 -229.164302 674.49607009 -229.16552734 668.15917969 C-229.16576749 666.9016048 -229.16600764 665.64402992 -229.16625507 664.34834671 C-229.17414864 623.57142344 -229.19758192 582.79452925 -229.23008329 542.01761868 C-229.26438128 498.90794156 -229.28409249 455.79828146 -229.28738564 412.68859047 C-229.28780318 407.95610455 -229.28828275 403.22361864 -229.28880882 398.49113274 C-229.28893201 397.325858 -229.28905521 396.16058327 -229.28918213 394.95999718 C-229.29151413 376.20786243 -229.30717403 357.45576147 -229.32765067 338.70363876 C-229.34790672 319.85447481 -229.35338698 301.00535142 -229.34388003 282.1561786 C-229.33866433 270.95943754 -229.34454595 259.76283157 -229.36641471 248.56610995 C-229.37992605 241.08250664 -229.3788428 233.59899628 -229.36601275 226.11539204 C-229.35911844 221.85426907 -229.35843847 217.5934043 -229.37557284 213.33230443 C-229.39106776 209.44712943 -229.38776043 205.56241822 -229.37016256 201.67725631 C-229.36558272 199.63966549 -229.38042345 197.60205832 -229.39632234 195.56452438 C-229.27264687 178.92400468 -225.20009887 163.35139935 -213.58520508 151.04077148 C-205.77302794 143.4534052 -197.22973101 136.67063991 -188.78051758 129.81420898 C-184.59624074 126.34884145 -180.51208722 122.77160344 -176.41748047 119.20117188 C-171.93285282 115.29983632 -167.36554463 111.51920112 -162.74536133 107.77905273 C-159.23488494 104.87909398 -155.80203406 101.89647136 -152.37036133 98.90405273 C-147.23808476 94.42870757 -142.03850859 90.06398147 -136.74536133 85.77905273 C-133.23488379 82.87909303 -129.80206198 79.89644079 -126.37036133 76.90405273 C-121.21184821 72.40657296 -115.98879039 68.01409821 -110.67114258 63.70483398 C-106.79869339 60.52370069 -103.0030735 57.25651719 -99.2043457 53.98803711 C-93.65617413 49.21431042 -88.07161779 44.48474267 -82.47924805 39.76293945 C-80.31724206 37.93688098 -78.1569444 36.10880847 -75.99682617 34.28051758 C-74.9153178 33.36524526 -73.83361305 32.45020494 -72.75170898 31.53540039 C-70.00255832 29.21059858 -67.25627702 26.88254061 -64.51489258 24.54858398 C-62.32524639 22.6849873 -60.13011165 20.82825779 -57.92895508 18.97827148 C-56.01531038 17.36768163 -54.11017367 15.74686546 -52.21801758 14.11108398 C-36.59761854 0.95836252 -19.54742303 -0.04582877 0 0 Z M-42.24536133 25.65405273 C-50.90069544 37.01105183 -52.17266393 48.76116071 -52.12483692 62.61496544 C-52.12722922 64.05639265 -52.13049597 65.49781863 -52.13455352 66.93924212 C-52.14316386 70.89956148 -52.13935109 74.85978591 -52.1334978 78.8201067 C-52.12932537 83.1289417 -52.13673065 87.43775945 -52.14265031 91.74659026 C-52.15141505 99.29826218 -52.15272344 106.84990698 -52.14914703 114.40158272 C-52.14384279 125.63123069 -52.14993252 136.86085239 -52.15822997 148.09049751 C-52.17347929 169.31252566 -52.17517409 190.53454189 -52.17270694 211.75657438 C-52.17087509 228.14261503 -52.1726316 244.52865176 -52.17693138 260.91469193 C-52.17753378 263.26790752 -52.17813498 265.62112312 -52.17873498 267.97433872 C-52.17964223 271.52029752 -52.18055089 275.06625632 -52.18146734 278.61221512 C-52.18989827 311.58536108 -52.19423157 344.55850556 -52.19006062 377.53165245 C-52.18990424 378.77496638 -52.18974786 380.01828031 -52.18958675 381.29927043 C-52.18878095 387.60104335 -52.18793518 393.90281626 -52.18707345 400.20458917 C-52.18690236 401.4561672 -52.18673127 402.70774523 -52.186555 403.99724987 C-52.18620834 406.52824486 -52.18585981 409.05923986 -52.18550941 411.59023485 C-52.18015141 450.97837831 -52.1880843 490.36649939 -52.20654297 529.75463867 C-52.22725163 573.99589437 -52.23798788 618.2371362 -52.23396748 662.47839701 C-52.23357213 667.19419201 -52.23321058 671.90998701 -52.2328701 676.62578201 C-52.23277937 677.78695141 -52.23268864 678.94812081 -52.23259516 680.14447716 C-52.23142844 697.68510338 -52.23808309 715.22571562 -52.24868202 732.76633835 C-52.26072115 752.71088596 -52.26230782 772.65540272 -52.24989185 792.59995078 C-52.24325305 803.76440167 -52.24491785 814.92877885 -52.25848037 826.09322388 C-52.26670816 833.54885661 -52.26404909 841.00443397 -52.2525051 848.46006218 C-52.24623213 852.70923855 -52.24469047 856.9582708 -52.25636844 861.20743899 C-52.26690227 865.07586947 -52.26353786 868.94403367 -52.24926391 872.81244989 C-52.24526437 874.85321975 -52.2559216 876.89400245 -52.26724097 878.93474483 C-52.19513854 891.13930028 -49.84193393 903.5399664 -41.47192383 912.96264648 C-30.38736246 922.93875171 -17.01183403 924.55986637 -2.77190304 924.5354805 C-1.65707059 924.53753313 -0.54223815 924.53958577 0.60637709 924.5417006 C4.35674149 924.54737275 8.10706919 924.54591308 11.85743713 924.54449463 C14.56762075 924.54652856 17.27780198 924.55005247 19.98798412 924.55349803 C26.66477229 924.5610711 33.34155246 924.56327074 40.01834447 924.56382709 C48.01597497 924.56474141 56.01359809 924.57141098 64.01122541 924.57817391 C83.34054531 924.5942291 102.66986441 924.6001366 121.99918977 924.60492266 C131.14416945 924.60725904 140.28914849 924.61086173 149.43412768 924.61461804 C180.74169362 924.62745297 212.04925922 924.63817232 243.35682774 924.64162064 C245.32189894 924.64184227 247.28697014 924.64206405 249.25204134 924.64228599 C251.22184199 924.64250663 253.19164264 924.64272711 255.16144329 924.64294744 C259.11316272 924.64338999 263.06488214 924.6438371 267.01660156 924.64428711 C267.99639722 924.6443965 268.97619288 924.64450589 269.98567932 924.6446186 C301.75524219 924.64824919 333.52478224 924.66416962 365.29433637 924.68747747 C398.88736137 924.71207803 432.48037332 924.72579357 466.07340759 924.72698855 C469.76166054 924.72716001 473.44991348 924.72737543 477.13816643 924.72762299 C478.04631002 924.72767875 478.95445361 924.72773452 479.89011671 924.72779198 C494.49930518 924.72894221 509.10847022 924.73996181 523.71765079 924.75451004 C538.40408696 924.76888223 553.09049312 924.77210794 567.77693439 924.76407006 C576.4990126 924.75961727 585.22099385 924.76346042 593.9430593 924.77930857 C599.77457119 924.78907336 605.60601532 924.78786603 611.43752662 924.77787234 C614.75671079 924.77249105 618.07555813 924.77340573 621.39475078 924.78438106 C648.49383618 925.34385295 648.49383618 925.34385295 671.94213867 913.21655273 C684.35475955 899.75003009 683.28172689 880.99496798 683.26335144 863.92071533 C683.26522236 862.26374184 683.26752417 860.6067688 683.27021676 858.94979644 C683.27630641 854.42017074 683.27620453 849.89056358 683.27502239 845.36093473 C683.27481766 840.46645037 683.28034395 835.57197185 683.28507996 830.67749023 C683.29337133 821.09737167 683.29613411 811.51725925 683.29669233 801.9371374 C683.29716818 794.14719542 683.29922635 786.35725548 683.30239296 778.56731415 C683.31119514 756.46260128 683.31581298 734.35789326 683.31506249 712.25317863 C683.31502253 711.06256669 683.31498257 709.87195476 683.31494141 708.64526367 C683.31490053 707.45319171 683.31485964 706.26111974 683.31481753 705.03292438 C683.3144111 685.71530123 683.32398084 666.39769758 683.33807977 647.08008006 C683.35245514 627.22647013 683.35934933 607.37286971 683.358486 587.51925445 C683.35815445 576.38034348 683.36088324 565.24145296 683.37166405 554.10254669 C683.38078428 544.61891277 683.38293176 535.13530857 683.37615462 525.65167215 C683.37289722 520.81743053 683.37280453 515.98324586 683.38150787 511.1490097 C683.38940824 506.71501564 683.38790559 502.28112338 683.37922374 497.8471317 C683.37769652 496.25164517 683.37947524 494.65615091 683.38508382 493.06067351 C683.44202878 475.69768071 683.24082254 458.81024817 670.54760742 445.59936523 C658.55962535 434.71528458 643.58493911 434.96343406 628.34472656 435.01586914 C626.35274468 435.01179841 624.36076506 435.00645373 622.36878967 434.99993896 C616.9844527 434.98631832 611.60028911 434.99154253 606.2159493 435.00107622 C600.56546534 435.00870115 594.91499568 435.00161926 589.26451111 434.99691772 C579.77657421 434.99146796 570.28870748 434.99863086 560.80078125 435.01293945 C549.85295167 435.02925971 538.90528978 435.02397879 527.95746428 435.00746024 C518.53631158 434.99381753 509.11520917 434.99193945 499.69404978 434.99977624 C494.07672183 435.00443806 488.45947253 435.00511887 482.84214973 434.99516678 C477.55855326 434.98645898 472.27517156 434.99258841 466.99159813 435.00984955 C465.05995158 435.01379429 463.12828676 435.01271513 461.19664764 435.00606155 C445.96699686 434.95846559 432.1694591 435.63881888 420.12963867 446.15014648 C411.58379886 455.00908819 408.96730977 466.27613015 409.00938416 478.20552063 C409.00852973 479.09184006 409.00767531 479.9781595 409.00679499 480.8913371 C409.00514804 483.86084686 409.01064874 486.83030013 409.01611328 489.79980469 C409.01639535 491.92859394 409.01623704 494.05738329 409.01567078 496.18617249 C409.01538356 501.96669229 409.02126806 507.7471914 409.02824473 513.52770638 C409.03449089 519.56820843 409.03508307 525.60871093 409.03627014 531.6492157 C409.03937973 543.0884112 409.04758811 554.52759717 409.05761963 565.96678847 C409.07088094 581.42412192 409.07628369 596.88145796 409.08212185 612.33879566 C409.09152823 636.6938885 409.11144966 661.0489612 409.12963867 685.40405273 C351.37963867 685.40405273 293.62963867 685.40405273 234.12963867 685.40405273 C234.16105957 656.51579956 234.16105957 656.51579956 234.19311523 627.04394531 C234.20651386 614.18406703 234.21984491 601.32418894 234.23223877 588.46430969 C234.23342277 587.23886141 234.23342277 587.23886141 234.23463069 585.98865659 C234.26113179 558.48566069 234.2821342 530.98266346 234.29901123 503.47966003 C234.29956346 502.58204222 234.30011569 501.68442441 234.30068465 500.75960606 C234.31265649 481.25160905 234.32373718 461.74361162 234.33389999 442.23561357 C234.3388893 432.66879437 234.34407552 423.10197529 234.34936523 413.53515625 C234.35014979 412.10714159 234.35014979 412.10714159 234.35095019 410.65027816 C234.36799334 379.79697519 234.39803692 348.94370153 234.43482755 318.09041632 C234.47256832 286.38271802 234.49718286 254.67503594 234.50529863 222.96731556 C234.50645124 218.48806941 234.50775379 214.00882333 234.50914764 209.52957726 C234.50941734 208.64800375 234.50968703 207.76643024 234.50996489 206.85814238 C234.51469041 192.67143267 234.53323901 178.48477315 234.55696681 164.2980839 C234.58053016 150.0331269 234.58950698 135.76821962 234.58364418 121.50324384 C234.58060359 113.02979604 234.58869732 104.55653032 234.61282884 96.08311542 C234.62785813 90.41837114 234.6282725 84.75374572 234.61696593 79.08899315 C234.61094275 75.86408792 234.61334893 72.63959429 234.6291714 69.41471241 C234.95798719 45.81667989 234.95798719 45.81667989 224.12963867 25.40405273 C214.83334571 16.10775978 202.61760255 13.32783153 189.79498476 13.26098514 C189.00782518 13.26185162 188.22066561 13.2627181 187.40965271 13.26361084 C186.55600366 13.26063972 185.70235461 13.2576686 184.82283741 13.25460744 C181.97514325 13.24596694 179.12749136 13.24441613 176.27978516 13.24291992 C174.23252778 13.23828839 172.18527127 13.23326328 170.13801575 13.22787476 C164.58394869 13.21477959 159.0298937 13.20831124 153.47581363 13.2038641 C150.00134606 13.20092825 146.52688176 13.19682245 143.05241585 13.19235992 C132.16866015 13.17869157 121.28491195 13.1690221 110.40114826 13.16515803 C97.86188856 13.16068108 85.32273808 13.14314718 72.78351158 13.11415744 C63.07537409 13.09249666 53.36726722 13.08245138 43.65910584 13.08111691 C37.8683766 13.08007189 32.07775011 13.07422876 26.28704643 13.0562973 C20.83444189 13.03974088 15.3820165 13.03769772 9.92939568 13.04643631 C7.9373069 13.04720269 5.9452082 13.04291719 3.95314407 13.03297806 C-12.12873508 12.95749865 -30.40268031 12.90964474 -42.24536133 25.65405273 Z " fill="#353535" transform="translate(1265.870361328125,-0.404052734375)"/>
<path d="M0 0 C2.38730366 0.00028285 4.7746074 0.00012223 7.16191101 -0.0004425 C13.57369389 -0.00072666 19.98545764 0.00510779 26.39723611 0.01213145 C32.43998335 0.01778901 38.4827295 0.01875842 44.52547898 0.01978333 C56.47662496 0.02195993 68.42776402 0.02858185 80.37890625 0.03808594 C91.97298142 0.04729636 103.56705471 0.05435933 115.16113281 0.05859375 C115.87846855 0.05885647 116.59580429 0.0591192 117.33487747 0.05938988 C120.93433938 0.06069513 124.5338013 0.06195879 128.13326323 0.06320179 C157.88922113 0.07353096 187.64517164 0.0911864 217.40112305 0.11352539 C217.40112305 4.73352539 217.40112305 9.35352539 217.40112305 14.11352539 C216.13979899 14.11591374 214.87847494 14.1183021 213.57892895 14.12076283 C183.4727851 14.17842622 153.36671906 14.25136736 123.26065974 14.34251167 C119.53542713 14.35377656 115.81019416 14.36491554 112.08496094 14.37597656 C111.34349749 14.37818025 110.60203405 14.38038393 109.83810202 14.38265439 C97.9148499 14.41779263 85.99159782 14.44278812 74.0683135 14.46387241 C61.78599907 14.48582352 49.50375039 14.51905148 37.22149211 14.56222695 C30.34293726 14.58609724 23.46444726 14.60509946 16.58585167 14.6111393 C-72.50632207 12.55611638 -72.50632207 12.55611638 -151.59887695 48.11352539 C-152.40711914 48.76708008 -153.21536133 49.42063477 -154.0480957 50.09399414 C-178.22280678 70.41852152 -186.47734242 104.93639642 -189.19215584 135.11091042 C-190.94971653 155.66124443 -190.7457699 176.32059364 -190.72960162 196.92753458 C-190.72730579 201.27113398 -190.73084757 205.61472963 -190.73358154 209.95832825 C-190.7379939 218.4327647 -190.7370832 226.90719222 -190.7341689 235.38162901 C-190.73189719 242.27684414 -190.73160995 249.17205679 -190.73269272 256.06727219 C-190.73284595 257.05402321 -190.73299918 258.04077423 -190.73315706 259.0574268 C-190.73347683 261.0628669 -190.73380105 263.06830699 -190.73412965 265.07374708 C-190.73697108 283.81307845 -190.73371832 302.5524049 -190.72832929 321.29173546 C-190.72386107 337.32478247 -190.72463993 353.35782225 -190.72924805 369.39086914 C-190.7346151 388.07285919 -190.73669797 406.75484494 -190.73363578 425.43683565 C-190.73331728 427.43369381 -190.73300291 429.43055197 -190.73269272 431.42741013 C-190.73253844 432.40955034 -190.73238417 433.39169055 -190.73222522 434.40359259 C-190.73136655 441.28096083 -190.73280882 448.15832631 -190.73517227 455.03569412 C-190.73799415 463.4303885 -190.73718202 471.82507354 -190.73189153 480.21976687 C-190.7292867 484.49192649 -190.72819398 488.76407062 -190.73154068 493.03623009 C-191.36461303 565.99956327 -191.36461303 565.99956327 -157.40356445 628.33227539 C-125.04262023 660.4227939 -72.98151399 666.3643821 -29.59887695 669.11352539 C-28.43248247 669.19491225 -27.26608799 669.27629911 -26.06434822 669.36015224 C-12.18229657 670.27467097 1.68967333 670.28726517 15.59692383 670.31884766 C18.29905427 670.32844542 21.00118099 670.3384156 23.70330811 670.34884644 C29.4848474 670.37043318 35.26638906 670.38864107 41.04794693 670.40445137 C49.40676441 670.42731451 57.76555797 670.45543297 66.12435494 670.48477065 C79.69104695 670.53224711 93.25774883 670.57556428 106.82446289 670.61621094 C119.99113736 670.65566809 133.15780306 670.69712893 146.32446289 670.74121094 C147.14643477 670.74396044 147.96840664 670.74670995 148.81528676 670.74954277 C155.24512734 670.77106615 161.67496754 670.79270448 168.10480762 670.8143791 C199.53689495 670.92030548 230.96900556 671.01621874 262.40112305 671.11352539 C262.40112305 591.25352539 262.40112305 511.39352539 262.40112305 429.11352539 C267.02112305 429.11352539 271.64112305 429.11352539 276.40112305 429.11352539 C276.40112305 513.59352539 276.40112305 598.07352539 276.40112305 685.11352539 C208.2097743 685.19418809 208.2097743 685.19418809 179.48510742 685.21118164 C172.91308584 685.21509594 166.34106435 685.21913649 159.76904297 685.22338867 C158.94562524 685.22391617 158.12220752 685.22444367 157.27383775 685.22498715 C144.07194193 685.23362774 130.87006398 685.24936241 117.66817867 685.26783098 C104.06603219 685.2866973 90.4638949 685.29767696 76.86173588 685.30170238 C69.244161 685.30417324 61.62662331 685.31004648 54.00906181 685.3249855 C-122.29710809 685.66029598 -122.29710809 685.66029598 -167.9230957 640.82055664 C-168.80610352 639.92723633 -169.68911133 639.03391602 -170.59887695 638.11352539 C-171.40969727 637.31301758 -172.22051758 636.51250977 -173.0559082 635.68774414 C-199.57892087 608.08031528 -204.77227092 563.07119793 -204.73258972 526.67092896 C-204.7344612 525.03045566 -204.73676324 523.3899828 -204.73945504 521.74951065 C-204.74553811 517.26986326 -204.74544359 512.79023464 -204.74426067 508.31058407 C-204.74405577 503.46779026 -204.74958403 498.62500234 -204.75431824 493.7822113 C-204.76260685 484.30348739 -204.76537229 474.8247697 -204.76593062 465.34604247 C-204.76640675 457.63436916 -204.76846639 449.9226979 -204.77163124 442.21102524 C-204.78043398 420.31369273 -204.78505137 398.41636511 -204.78430077 376.51903082 C-204.78426081 375.33978434 -204.78422085 374.16053786 -204.78417969 372.94555664 C-204.78413881 371.76485819 -204.78409793 370.58415975 -204.78405581 369.36768256 C-204.78364975 350.2520809 -204.79321021 331.13649897 -204.80731805 312.02090301 C-204.82171264 292.36045972 -204.8285865 272.70002605 -204.82772428 253.03957736 C-204.82739331 242.01503533 -204.83009626 230.99051398 -204.84090233 219.96597672 C-204.85004812 210.57552552 -204.85214941 201.18510437 -204.84539291 191.79465063 C-204.84214778 187.01219145 -204.84199747 182.22978976 -204.85074615 177.4473362 C-204.92853825 132.1082487 -204.92853825 132.1082487 -200.78637695 110.86352539 C-200.61460937 109.96279297 -200.4428418 109.06206055 -200.26586914 108.1340332 C-195.330781 83.08779873 -186.81925056 60.64012377 -168.59887695 42.11352539 C-167.49479492 40.99010742 -167.49479492 40.99010742 -166.3684082 39.84399414 C-124.41449239 -0.28278296 -54.24381361 -0.09140781 0 0 Z " fill="#353535" transform="translate(518.598876953125,125.886474609375)"/>
<path d="M0 0 C4.62 0 9.24 0 14 0 C14 221.43 14 442.86 14 671 C158.87 671 303.74 671 453 671 C453 588.83 453 506.66 453 422 C457.62 422 462.24 422 467 422 C467 508.79 467 595.58 467 685 C312.89 685 158.78 685 0 685 C0 458.95 0 232.9 0 0 Z " fill="#363636" transform="translate(1351,126)"/>
</svg>
